<?xml version="1.0" encoding="UTF-8"?>
<!DOCTYPE svg PUBLIC "-//W3C//DTD SVG 1.1//EN" "http://www.w3.org/Graphics/SVG/1.1/DTD/svg11.dtd">
<!-- Creator: CorelDRAW X8 -->
<svg xmlns="http://www.w3.org/2000/svg" xml:space="preserve" width="1.98819in" height="1.51575in" version="1.1" style="shape-rendering:geometricPrecision; text-rendering:geometricPrecision; image-rendering:optimizeQuality; fill-rule:evenodd; clip-rule:evenodd"
viewBox="0 0 1988 1516"
 xmlns:xlink="http://www.w3.org/1999/xlink">
 <defs>
  <style type="text/css">
   <![CDATA[
    .fil1 {fill:#154933}
    .fil0 {fill:#76C04E;fill-rule:nonzero}
   ]]>
  </style>
 </defs>
 <g id="Layer_x0020_1">
  <metadata id="CorelCorpID_0Corel-Layer"/>
  <path class="fil0" d="M1052 301c30,-69 40,-21 112,-61 14,-7 28,-11 45,-12 35,-2 48,14 54,41 23,113 42,75 56,128 7,-8 16,-15 22,-17 17,-6 33,-3 74,-10 18,-3 22,19 20,42 -1,30 -25,33 36,18 26,-6 56,-10 98,-16 24,-3 46,-21 66,-10 12,6 29,29 36,42 23,43 33,47 39,95 3,25 11,88 12,112 3,45 -1,32 9,55 11,28 0,58 4,88 1,7 2,9 7,12 10,6 55,-19 68,-21 24,-2 50,-2 74,18 18,15 18,117 12,128 -7,14 -26,33 -33,46 -5,8 -9,17 -13,25l-9 18c81,-57 90,-1 76,6 -28,15 -15,49 -14,72 2,27 -22,88 -29,108 6,26 3,53 -7,66 -12,16 -22,-41 -113,20 -134,89 -176,27 -345,48l-47 14c1,25 -7,50 -19,60 -14,14 -14,-44 -114,1 -69,30 -176,87 -252,44 -30,19 -74,21 -119,-1l-103 -51c-104,-52 -107,9 -121,-5 -6,-6 -11,-15 -14,-26 -2,-4 -4,-9 -6,-16 -5,-14 -9,-10 -13,-10 -141,0 -137,-72 -268,-66 -46,2 -44,19 -86,3 -14,-5 -28,-17 -45,-24 -79,-24 -77,20 -91,8 -18,-16 -27,-67 -12,-104 3,-7 6,-14 10,-20 -33,-56 -13,-115 -12,-147 0,-13 -6,-30 0,-34 10,-8 42,9 56,9 -1,-12 0,-3 -17,-31 -1,-11 -37,-53 -15,-120 25,-17 49,-7 59,-6 7,1 26,3 31,5 1,-23 -12,-65 -13,-92 -3,-47 -7,-119 11,-162 5,-10 10,-18 18,-23 29,-18 80,-34 113,-34 26,1 52,6 75,15 104,43 94,47 100,-100 2,-24 13,-58 14,-81 2,-25 -11,-53 7,-70 37,-33 130,-18 192,-1 39,12 72,47 74,47 5,-3 9,-9 13,-15 14,-20 34,-34 51,-54 17,-20 24,-32 52,-24 21,5 50,16 67,29 13,10 47,50 61,54 2,-4 4,-9 6,-13zm754 246c6,5 28,30 21,37 -2,1 -40,22 -42,13 -1,-7 18,-46 21,-50zm-814 -494l25 0c4,11 5,23 5,36 1,10 0,30 -6,35 -11,4 -23,-62 -24,-71zm-341 84c3,3 6,7 8,11 3,6 11,23 8,30 -2,0 -2,0 -4,-1 -7,-5 -25,-37 -25,-40 5,-4 10,-4 13,0zm834 136c-1,3 -3,8 -7,7 -2,-9 23,-68 28,-79 2,1 13,13 14,17 2,10 -29,46 -35,55zm-1428 388c20,12 51,54 6,32 -6,-2 -25,-14 -30,-17 -1,-21 9,-24 24,-15zm326 -417c28,-16 39,82 36,94 -4,0 -6,-5 -9,-8 -7,-11 -45,-53 -43,-64 1,-5 13,-20 16,-22z"/>
  <path class="fil1" d="M1026 317c5,2 57,46 58,49 38,35 4,81 -19,55 -4,-16 9,-41 0,-53 -7,5 -4,12 -5,22 0,9 -1,18 -7,21 -5,-10 -4,-16 -1,-29 3,-10 6,-17 4,-29l-5 1c-4,10 -5,42 -9,49 -3,1 -6,0 -9,-2 -1,-7 9,-42 9,-54 -4,2 -7,6 -9,10 -1,5 -2,23 -4,33 -1,7 -2,9 -9,10 -3,-33 14,-45 9,-66 -2,-1 -1,-1 -3,-2l-5 13c0,2 -4,51 -19,55 1,-15 14,-44 6,-64 -8,4 -7,34 -8,44 -7,-1 -16,-18 -21,-24 -6,-9 -13,-18 -20,-25 -2,-3 -4,-4 -6,-6 -3,-4 -10,-8 -16,-18 -7,-11 -8,-20 -12,-33 -3,-1 -6,-2 -9,-1 -3,8 0,9 1,21 1,17 22,34 34,44 8,8 18,17 25,27 6,9 13,23 14,38 -4,1 -13,6 -16,8l-30 22c-4,3 -10,8 -15,10 -8,-6 -11,-36 -14,-40 -7,4 -5,22 -2,28 2,4 5,7 7,10 1,2 2,4 2,7 -1,2 -3,3 -6,2 -10,-5 -12,-47 -18,-52 -7,6 -1,25 1,33 2,9 9,25 9,32 -16,-2 -16,-58 -22,-69 -1,1 -1,0 -2,2 -1,2 -1,8 -1,11 0,18 6,30 6,43 -1,-2 -3,-8 -4,-11l-11 -34c-4,-14 -11,-32 -11,-48 0,-18 2,-36 6,-52 3,-11 10,-37 17,-41 0,7 -15,47 2,42 1,-4 0,-10 1,-14 3,-25 21,-52 36,-40 27,21 95,65 101,65zm364 104c0,-13 11,-7 20,-20 4,-7 14,18 -11,23 -2,1 -8,1 -9,-2l0 -1zm-52 -2c-7,-9 10,-16 17,-17 6,0 33,-5 36,-8 2,-2 8,8 -7,10 -2,0 -15,6 -18,9 -4,5 -8,14 -12,19 -13,17 -16,-12 -16,-13zm-19 -22c7,-8 16,-15 22,-17 17,-6 33,-3 74,-10 18,-3 22,19 20,42 -1,30 -25,33 36,18 26,-6 56,-10 98,-16 24,-3 46,-21 66,-10 12,6 29,29 36,42 23,43 33,47 39,95 3,25 11,88 12,112 3,45 -1,32 9,55 11,28 0,58 4,88 1,7 2,9 7,12 10,6 55,-19 68,-21 24,-2 50,-2 74,18 18,15 18,117 12,128 -7,14 -26,33 -33,46 -5,8 -9,17 -13,25l-9 18c81,-57 90,-1 76,6 -28,15 -15,49 -14,72 2,27 -22,88 -29,108 6,26 3,53 -7,66 -12,16 -22,-41 -113,20 -134,89 -176,27 -345,48 -12,3 -29,8 -47,14 1,25 -7,50 -19,60 -14,14 -14,-44 -114,1 -69,30 -176,87 -252,44 -30,19 -74,21 -119,-1 -28,-14 -53,-27 -103,-51 -104,-52 -107,9 -121,-5 -6,-6 -11,-15 -14,-26 -2,-4 -4,-9 -6,-16 -5,-14 -9,-10 -13,-10 -141,0 -137,-72 -268,-66 -46,2 -44,19 -86,3 -14,-5 -28,-17 -45,-24 -79,-24 -77,20 -91,8 -18,-16 -27,-67 -12,-104 3,-7 6,-14 10,-20 -33,-56 -13,-115 -12,-147 0,-13 -6,-30 0,-34 10,-8 42,9 56,9 -1,-12 0,-3 -17,-31 -1,-11 -37,-53 -15,-120 25,-17 49,-7 59,-6 7,1 26,3 31,5 1,-23 -12,-65 -13,-92 -3,-47 -7,-119 11,-162 5,-10 10,-18 18,-23 29,-18 80,-34 113,-34 26,1 52,6 75,15 104,43 94,47 100,-100 2,-24 13,-58 14,-81 2,-25 -11,-53 7,-70 37,-33 130,-18 192,-1 39,12 72,47 74,47 5,-3 9,-9 13,-15 14,-20 34,-34 51,-54 17,-20 24,-32 52,-24 21,5 50,16 67,29 13,10 47,50 61,54 2,-4 4,-9 6,-13 30,-69 40,-21 112,-61 14,-7 28,-11 45,-12 35,-2 48,14 54,41 23,113 42,75 56,128zm-650 879c0,7 0,7 -9,6 -8,-29 5,-70 14,-51 2,4 -8,32 -5,45zm14 -14c2,13 5,26 7,39 -10,7 -17,-25 -7,-39zm27 30c-8,18 -14,-19 -17,-32 2,-21 14,-33 14,-20 0,5 -1,9 -1,14 3,-6 5,-9 6,2 1,24 9,19 11,-1 1,-8 -17,-62 -1,-31 31,52 4,37 153,96 3,1 30,10 30,10 -26,-16 -28,-31 -23,-27 14,12 17,3 7,-8 -14,-16 -14,-53 -21,-46 -9,2 0,21 3,29l0 1c-6,18 -24,-17 -26,-25 -5,-15 -15,-36 -21,-33 -2,5 7,28 9,34 2,6 5,13 8,19 1,1 5,2 7,4 -1,1 -1,2 -2,2 -6,1 -9,-8 -14,-13 -1,-1 -1,-3 -2,-4 -7,-12 -17,-51 -18,-51 -5,1 -10,4 -9,10 3,18 9,29 18,46 -4,15 -11,-10 -15,-11 -13,-15 -20,-47 -23,-45 -2,0 -5,-1 -6,0 -2,1 -2,3 -2,5 2,14 11,33 22,44 1,0 1,0 1,0 19,22 -20,-2 -22,1 -1,1 -1,3 -1,5 -19,-8 -25,-16 -35,-30 -7,-12 -3,-24 -3,-27 1,-1 0,1 0,-1l1 -3c9,1 8,2 23,2 13,0 12,0 22,-4 2,-2 13,-6 18,-6 7,1 11,6 16,8 14,8 26,3 39,8 196,85 106,196 22,151 -12,0 -40,-30 -44,-42 -4,-16 -14,-7 -2,9 45,55 -16,24 -15,-2 0,-22 -16,-37 -8,-8 17,60 -14,17 -13,-3 1,-24 -10,-32 -10,-14 0,14 8,31 9,40 2,13 -14,10 -19,-9 -6,-18 -9,-42 -10,-49 -12,0 -2,28 -1,35 5,37 -16,-16 -17,-18 -5,-9 -4,-30 -4,-31 -14,-21 -4,25 -4,25 2,15 7,25 13,35 -19,9 -21,-40 -37,-53 -5,-5 -5,7 -6,12zm-124 -734c-1,8 -1,10 4,15 9,14 32,43 16,33 -3,-1 -10,-4 -12,-7 -4,-7 -19,-28 -25,-30 -2,18 30,45 37,56 12,39 -44,-51 -44,-32 2,36 53,78 36,75 -20,-5 -38,-57 -44,-63 -2,-1 -1,-1 -4,-1 0,5 -1,9 1,15 4,12 14,25 22,34l9 10c3,3 6,6 10,9 6,6 14,11 12,26 -24,-2 -47,-26 -58,-45 -3,-6 -8,-14 -12,-19 -3,-2 0,-1 -3,-2 -1,38 50,59 64,75 5,6 2,15 0,21 -6,14 -5,10 1,19 3,7 5,16 4,24 -7,-4 -8,-13 -14,-16 -2,2 -3,7 -5,10 -7,17 5,12 6,34 -4,-2 -4,-8 -8,-13 -2,-4 -8,-8 -12,-9 0,5 10,24 13,29 4,8 13,22 14,31 -3,-1 -3,-2 -6,-6 -5,-8 -9,-18 -12,-26l-11 -28c-3,-4 -3,-7 -6,-8 -7,12 23,71 24,86 -5,-3 -19,-31 -23,-40 -2,-7 -12,-43 -17,-46 -5,7 0,14 3,24 2,8 5,17 7,25 5,12 20,31 16,45 -14,-8 -31,-53 -37,-70 -9,-27 -16,-60 -19,-90 -3,-34 -5,-69 11,-94 39,-59 4,-237 23,-295 11,-32 51,-28 80,-29 16,0 32,3 48,5 24,4 42,9 65,19 11,4 31,13 41,19 11,8 12,29 8,36 -2,6 -3,11 -7,0 0,0 -4,-29 -8,-22 -4,5 -2,7 -4,10 -2,-4 -3,-10 -8,-10 -4,16 4,39 -5,52 -4,-6 1,-44 -6,-53 -12,5 3,42 -11,49 0,-18 6,-42 -1,-56 -11,7 1,55 -12,46 -1,-17 3,-29 2,-41 -2,-20 -6,-16 -7,0 -1,12 -1,33 -7,38 -5,-5 -1,-26 -1,-34 0,-5 0,-15 -1,-23 -2,-16 -8,-16 -8,1 0,18 9,41 0,50 -3,3 -11,5 -18,5 -5,-14 3,-38 -6,-70 -10,7 1,36 -3,57 -3,18 -10,22 -18,30 -2,3 -7,7 -9,8 -6,-7 -7,-20 -13,-22 -3,18 11,22 7,40 -2,6 -10,31 -15,34 -14,-9 -24,-48 -28,-65 -3,-12 -5,-25 -8,-37 -3,-10 -8,-28 -13,-34 -10,4 4,16 -7,16 -5,0 -9,-1 -13,-3 -5,-3 -5,-8 -13,-5 0,6 9,11 16,13 4,1 8,1 12,2 11,2 12,19 13,31 3,22 12,48 21,68 11,23 19,20 17,40 -9,1 -9,-8 -15,-9 1,10 4,11 6,17 -4,-2 -8,-7 -10,-10 -3,-4 -6,-8 -12,-9 1,6 5,13 8,16 2,4 9,10 10,14 -12,-2 -24,-21 -30,-32 -2,-3 -1,-4 -5,-3l-1 1c0,5 0,-4 0,1 0,5 5,14 8,17 34,37 50,58 32,52 -7,-2 -7,-6 -16,-6 3,21 13,6 13,25 -10,1 -12,-8 -17,-9 -7,21 34,30 12,36 -9,-1 -17,-15 -22,-23l-2 1zm212 -124c-1,-14 2,-32 7,-45 3,-8 38,-91 47,-94 2,3 -4,52 -1,65 2,34 46,114 15,157 -1,1 -12,17 -13,20 -2,2 -13,18 -14,18 -2,-6 0,-19 -4,-23 -7,6 -5,29 -5,40 -2,-3 -2,-5 -2,-9 -6,-37 5,-57 2,-67 -8,0 -7,16 -11,21 -1,-5 2,-25 3,-30 2,-9 7,-19 3,-28 -6,3 -11,37 -16,41 -15,-16 24,-61 10,-74 -6,5 -11,38 -20,46 -2,-22 14,-50 15,-63 -12,3 -12,22 -16,25zm409 60c1,-11 13,-28 13,-37 -4,0 -4,3 -10,12 -7,13 -9,17 -13,31 -4,17 -7,92 -12,100 -3,-16 -2,-52 0,-69 5,-35 12,-52 30,-79 5,-8 9,-14 16,-20 11,-11 41,-14 61,-12 1,2 5,11 7,13 11,20 26,49 38,67 6,9 11,19 16,27 8,14 43,110 42,127 -4,-4 -4,-13 -12,-14 -5,12 3,21 4,32 -4,1 -10,4 -14,4 -3,-12 1,-36 -8,-42 -3,2 -5,7 -5,13 0,4 1,13 -2,16 -3,-8 -6,-15 -6,-26l-8 -2c-4,16 2,34 -5,39 -6,-7 0,-26 -9,-32 -9,6 -5,24 -3,35 3,14 5,21 1,36 -3,0 -5,-1 -6,-2 -1,-8 4,-14 3,-23 -1,-6 0,-23 -9,-19 -3,2 1,12 -1,16 -2,-7 1,-34 -8,-37 -3,5 -4,5 -4,13 0,7 0,11 1,17 1,3 1,13 0,17l-2 10c-2,4 0,2 -2,3l-9 -50c-7,0 -6,4 -6,11 -1,6 0,11 0,17 1,9 4,25 -1,31 -4,-6 2,-4 -1,-16 -1,-6 -3,-9 -4,-16 -1,-11 1,-26 -4,-35 -7,3 -8,13 -6,24 1,5 2,9 1,14 0,7 2,9 -4,11 -10,-9 -3,-54 -7,-67 -3,0 -5,3 -6,7 -4,10 -4,26 -3,36 0,7 3,49 2,50 -5,-5 -7,-45 -8,-56 -1,-24 12,-166 -7,-40 -1,5 -1,16 -3,20 -2,-6 -1,-36 -1,-45 0,-9 1,-18 3,-27 5,-27 -2,-40 -9,-6 -2,9 -3,18 -4,29 -4,32 -1,37 -1,65 0,3 0,4 -1,7 0,4 0,5 -2,7 -7,-21 -7,-100 -1,-122 5,-13 11,-46 -6,-18 -17,29 0,97 -8,110 -7,-5 -5,-63 -4,-75 2,-22 2,-50 12,-68 5,-10 10,-16 15,-24 3,-4 5,-9 8,-12 14,-21 10,-16 28,-33 7,-6 18,-9 20,-11 5,-3 5,-1 6,-4 -6,-3 -33,11 -40,16 -11,8 -18,22 -26,33 -5,8 -10,22 -16,23zm431 161c-2,-8 -13,-3 -8,-15 5,-15 1,-12 -5,0 -16,6 -8,-11 -15,-7 -3,-10 -2,-52 -6,-24l-9 28c-3,1 -17,-1 -17,-1 -4,-4 -3,-14 -7,-19 -10,1 -7,10 -11,17 -3,-3 -2,-17 -3,-22 -11,0 -2,-9 2,-18 4,-7 7,-13 10,-20 7,-13 14,-26 20,-38 5,-9 5,-13 12,-18 6,-4 12,-9 17,-13 11,-11 11,-12 19,-24 3,-4 6,-7 4,-11 -4,2 -15,19 -25,27 -3,3 -6,7 -11,8 0,-27 -2,-39 15,-55 0,-7 -3,-15 -9,-16 -4,4 -6,18 -9,25 -4,8 -10,12 -10,25 0,25 -4,37 -13,57 -9,19 -29,45 -40,65 -3,6 -12,18 -16,20 -14,-20 -3,-22 -10,-43 -2,-5 -3,-10 -3,-15 0,-6 3,-14 -3,-14 -8,5 -1,33 -1,42 -4,5 -7,2 -16,19 -3,6 -9,18 -15,19 1,-6 11,-24 13,-31 -5,1 -11,8 -14,11 -2,3 -8,11 -11,12 -2,-16 8,-22 9,-32 -14,2 -14,21 -24,24 5,-21 2,-14 4,-29 1,-3 3,-4 0,-9 -8,1 -14,18 -20,21 1,-9 16,-25 16,-38 -5,1 -12,8 -14,11l-10 14c1,-11 10,-17 10,-30 -17,1 -21,31 -28,37 -5,-15 25,-49 26,-65 -19,6 -22,36 -35,47 -1,-14 28,-52 28,-68 -15,1 -25,38 -34,46 -1,-19 26,-56 29,-70 -10,2 -18,15 -22,25 -4,10 -11,20 -13,32 -5,-1 -6,-7 -7,-12 0,-12 17,-28 16,-37l-14 0c2,-4 67,-26 74,-29 52,-26 87,-43 146,-39 37,3 47,8 59,38 17,43 30,109 34,160 4,57 8,71 -9,126 -3,9 -9,32 -16,33 -2,-18 5,-35 11,-49 2,-9 14,-40 10,-49 -3,0 -1,-1 -3,2 -4,6 -7,22 -9,30 -2,9 -6,27 -11,33 1,-15 14,-59 19,-78 2,-8 7,-20 -2,-24 -5,6 -16,90 -28,97 -1,-18 18,-68 24,-91 2,-10 6,-23 3,-33 -1,1 -1,0 -2,2 -3,5 -13,42 -14,49 -5,14 -9,43 -18,50l9 -32c6,-19 13,-46 18,-66 3,-9 7,-25 8,-35 -9,3 -20,51 -25,65 -1,3 -1,3 -3,3 -5,-6 6,-28 8,-34 5,-11 11,-23 7,-36 -4,1 -5,5 -7,9 -2,3 -3,6 -4,10 -7,19 -13,60 -23,67 -2,-4 2,-13 2,-17zm-1196 -88l20 7 5 30c-8,-6 -7,-17 -10,-23 -2,-2 -4,-5 -6,-5l1 24c-4,-4 -11,-24 -10,-33zm1050 65c1,-2 12,-31 15,-32l1 5c1,7 -2,9 -4,14 -3,6 -6,12 -12,13zm-771 73c-3,28 5,38 4,56 -1,28 23,28 11,44 -2,-1 -11,-12 -12,-14 -7,-15 -9,-60 -18,-64 -2,3 -1,7 -1,10 0,11 0,21 2,32 1,7 1,13 4,19 2,7 6,9 4,17 -5,-1 -13,-16 -15,-20 -2,-5 -4,-24 -8,-26 -3,4 -1,20 0,27l5 22c0,3 0,1 -1,3 0,0 -1,3 -3,-2 -2,-3 -4,-23 -8,-31l-5 0c-1,3 1,6 2,14 1,6 2,10 2,16 1,8 8,17 12,23 10,13 21,30 14,51 -4,-2 -4,-8 -6,-13 -3,-7 -6,-4 -12,-7 -1,-3 -8,-33 -9,-39l-10 -40c-3,7 6,38 5,48 4,4 2,26 15,44 2,3 8,8 7,12 -5,1 -5,-2 -9,2 0,4 1,7 1,13 0,5 1,8 2,12 2,5 7,18 7,23 -6,-1 -7,-6 -8,-11 -2,-7 -3,-8 -3,-17 0,-4 -6,-26 -7,-30 -6,-1 -1,-3 -4,-8 -3,-4 -3,-12 -5,-21 -1,-2 0,-2 0,-5l-5 -2c-1,6 1,8 1,15 2,10 1,20 4,29 2,6 1,8 2,15 0,5 2,6 2,14l3 48c1,6 2,10 -3,13 -3,-7 -6,-28 -7,-37 -1,-12 1,-33 -1,-42 -3,-7 -1,-14 -5,-17 0,0 -2,-1 -2,-1 -2,-1 0,-1 -3,-1 -1,3 2,12 3,17 2,7 1,14 2,22l2 43c-1,16 -1,28 1,43 2,13 6,29 6,41 -8,-8 -7,-23 -10,-36 -9,-46 -7,-37 -7,-84 0,-7 -1,-14 -1,-22 -1,-6 -2,-15 -10,-14 -1,2 2,12 3,17 0,7 -1,14 -1,20 0,7 1,36 -1,39 -3,0 -9,-4 -13,-7 -10,-7 -13,-5 -23,-18 -2,-3 -9,-12 -9,-13 -1,-4 7,-99 9,-116 4,-33 5,-80 8,-117 7,-84 17,-173 34,-256 3,-10 7,-26 15,-28 1,3 2,8 7,18 14,27 11,27 13,63 2,38 20,82 40,112 12,19 28,42 36,64 4,10 10,29 11,41 -8,-2 -3,-5 -13,-1 -2,-2 -4,-14 -5,-17 -1,-3 0,-5 -3,-5 -4,12 -2,15 1,30 3,10 6,20 4,30 -5,-1 -8,-7 -10,-11 -3,-5 -4,-9 -5,-15 -1,-9 -3,-28 -9,-32 -7,12 12,61 12,67 -4,-2 -8,-5 -11,-7 -4,-3 -6,-5 -7,-12 -1,-5 -2,-11 -3,-16 0,-2 -1,-9 -2,-11 -1,-3 -1,-2 -3,-3zm-99 402c-4,-23 1,-55 -5,-73 -5,1 -7,21 -8,24 -2,29 5,63 10,91 -6,-7 -11,-26 -12,-38 -4,-36 -9,-48 -10,-90 0,-9 0,-42 2,-47 4,10 5,29 8,34 1,0 4,-2 4,-2l-6 -33c-5,-17 -7,-13 -4,-35 5,9 11,14 17,20 8,9 24,12 30,26 6,10 8,25 12,41 11,36 -1,143 -38,82zm743 141c29,12 22,25 46,41 10,6 19,10 33,10 -2,7 -19,17 -27,18 2,-4 8,-6 11,-11 -2,-1 -3,-2 -5,-2 -1,0 -4,1 -6,1 -10,4 -9,17 -25,13 0,-5 2,-5 7,-11 2,-1 7,-8 7,-10 -6,-2 -19,16 -34,22 -12,5 -31,13 -47,10 1,-8 10,-8 17,-9 7,-1 14,-4 20,-7 13,-6 19,-14 22,-17 16,-12 -2,-7 -5,-3 -4,5 -15,13 -21,15 -4,2 -13,4 -17,2 1,-4 1,-2 11,-7 4,-1 18,-11 24,-18 7,-9 2,-12 -9,-1 -8,8 -20,15 -31,17 1,-2 2,-4 2,-6 2,-5 6,-3 16,-11 4,-3 15,-15 14,-21 -7,-2 -7,5 -11,8 -3,3 -7,8 -13,8 5,-15 5,-25 21,-31zm-213 93c7,1 122,-2 127,-9 3,15 -113,19 -127,9zm-14 9c2,-4 5,-6 10,-3 4,2 28,8 41,8 53,0 84,2 10,7 -2,0 -55,-7 -57,-8 -3,-2 -2,-1 -4,-4zm-25 16c2,-2 7,-6 9,-7 5,2 30,5 53,9 53,8 30,14 -9,7 -3,0 -49,-4 -53,-9zm-20 15c2,-2 5,-4 7,-6 19,10 43,15 76,12 -17,15 -87,5 -83,-6zm-308 -194c-2,3 -13,6 -16,6 -7,2 -31,0 -33,-8 -51,7 -43,-54 -48,-66 -6,-17 7,-57 14,-26 7,30 57,74 83,94zm-403 -604c-1,-4 1,-11 0,-18 -2,-7 -5,-16 -6,-23 7,2 8,5 10,17 2,8 2,20 -4,24zm-154 608c-15,3 -10,-3 -25,-14 -5,-3 -45,-60 -53,-57 0,3 38,52 52,64 2,2 6,5 8,8 -14,0 -67,-42 -76,-47 -25,-20 -16,-118 -20,-157 9,-3 26,-1 34,2 6,2 8,5 10,10 2,4 5,11 6,14 -12,8 -18,-16 -26,-17 -1,6 6,17 12,21 3,3 9,8 12,11 7,5 11,10 11,23 -25,-13 -9,17 -3,25 19,27 52,75 58,114zm-96 -39c8,3 57,45 68,47 11,1 22,1 33,1l11 19c1,2 2,5 3,7 -5,-1 -11,-8 -14,-11 -3,-4 -11,-9 -15,-9 0,8 0,5 8,14 6,8 17,18 26,22 5,2 6,-2 12,12 -12,0 -43,-25 -49,-36 -2,-3 -2,-5 -5,-8 -6,-7 -14,-8 -6,2 2,2 3,4 4,6 -34,-9 -32,1 -53,-6 -22,-7 -26,-49 -23,-60zm1175 -162c-3,-10 -2,-7 7,-24 2,-3 4,-7 6,-10 1,-3 3,-10 5,-11 1,8 2,7 -2,14l-16 31zm6 30c-1,-3 -4,-15 -4,-17 0,-6 12,-27 15,-33 1,-2 2,-5 4,-6 2,9 3,4 0,15 -3,10 -9,34 -15,41zm-144 245c-3,11 -7,17 -8,34 0,7 1,11 3,18 1,3 1,5 3,7 2,3 3,5 5,6 5,-2 3,-5 2,-10 -3,-15 2,-37 6,-51 1,-4 5,-13 1,-15 -3,-3 -7,2 -8,2 -1,2 -3,8 -4,9zm19 39l6 10c2,3 4,7 7,8 3,-12 -8,-45 4,-58 -3,-12 -6,-4 -8,2 -4,9 -7,15 -9,26 0,4 1,9 0,12zm354 -85c16,-2 39,-8 47,-25 -2,-3 -4,-4 -6,-2 -2,1 -4,3 -6,5 -9,8 -17,12 -30,14 -5,1 -14,0 -19,2 1,4 8,7 14,6zm-401 64c-2,11 -9,23 1,37 1,2 5,6 8,7 3,-7 -2,-9 -4,-13 -5,-8 0,-26 3,-34 1,-4 5,-11 5,-14 -4,-1 -8,2 -10,6 -1,3 -2,9 -3,11zm-10 -11c-1,0 -5,0 -7,-1 -4,7 -7,11 -8,21 0,8 1,18 9,21 3,-10 -5,-8 0,-21 1,-5 8,-12 6,-20zm-371 -54c-16,5 2,39 18,39 0,-5 -2,-4 -6,-9 -9,-11 -7,-20 -12,-30zm453 79c0,5 -1,7 2,12 3,6 7,12 14,11 0,-4 -2,-9 -4,-13 -1,-7 -2,-10 -3,-18 -6,-2 -9,-1 -9,8zm325 -106l-14 3 2 5c20,3 40,-11 37,-16l-4 0c-3,4 -16,9 -21,8zm-23 -13c-2,2 3,7 3,7 5,2 22,-6 27,-10 3,-2 6,-3 4,-7 -4,-1 -22,8 -34,10zm-270 120c0,-4 0,-5 -4,-5 -6,17 8,29 13,28 4,-10 -8,-7 -9,-23zm-334 -266c2,-4 -3,-9 -6,-13 -1,-2 -7,-12 -12,-7 -2,2 1,5 3,6 4,6 10,18 15,14zm386 -164l-5 0c0,2 0,3 0,5l1 3c0,2 -1,3 -2,4 -6,-24 23,-60 26,-75 -14,2 -15,25 -23,27 0,-9 4,-23 7,-30 3,-7 12,-18 12,-27 -10,3 -13,21 -25,28 0,-5 11,-24 14,-32 6,-18 6,-14 20,-27 4,-5 3,-5 11,-12 11,-9 33,-24 46,-26 -7,19 -33,40 -34,60 3,-1 6,-5 10,-8 5,-4 1,-4 10,-19 11,-15 25,-27 27,-42 0,-5 6,-7 12,-11l28 -20c30,-22 35,-16 77,-17 17,0 78,-3 89,3 -2,3 -15,14 -20,20 -6,8 -12,14 -18,23 -24,35 -32,76 -44,116 -17,53 -30,97 -52,148 -13,29 4,16 13,-5 7,-17 4,-11 14,-22 7,-7 4,-6 18,-18 3,-3 11,-6 12,-12 -2,0 -15,5 -17,7l-13 11c1,-5 4,-13 6,-18 2,-6 5,-11 7,-16 10,-27 28,-81 35,-107 3,-12 7,-24 11,-35 13,-37 24,-55 47,-84 1,-2 3,-4 5,-7 13,0 10,7 15,24 2,8 4,15 7,22 4,14 9,29 14,43 10,26 24,60 25,89 -23,-2 -26,10 -49,23 -15,9 -35,17 -56,19l19 -64c4,-14 16,-55 10,-69 -2,0 0,-1 -2,1 0,0 -1,2 -1,2 -2,8 -7,31 -8,39 -17,110 -91,120 -11,105 16,-3 21,-10 35,-15 12,-5 24,-12 33,-19 4,-3 10,-7 15,-10 3,-2 15,-8 17,-8 4,54 -7,98 -15,148 -2,15 -5,33 -6,48 0,18 -7,52 -11,71 -1,4 -1,8 -2,11 -3,11 -5,9 -10,32 -2,11 -9,32 -14,41 -8,16 2,13 -15,29 -3,3 -6,6 -9,8 -9,5 -16,5 -23,7 -4,1 -4,2 -2,7 0,0 0,0 0,0 10,-2 16,-4 24,-8l16 -9c1,7 -2,13 -3,19 -1,4 -1,7 -4,9 -3,1 -8,1 -8,3 2,2 6,0 9,0 -1,9 -3,11 -7,16 -9,11 -29,1 -52,-11 -16,-5 -24,-42 -28,-56 -2,-4 -4,-8 -6,-11 -2,-5 -5,-7 -6,-10 8,-3 5,1 19,-7l18 -10c14,-10 26,-18 39,-30 13,-11 27,-20 39,-31 4,-4 10,-6 11,-10 0,-1 0,-1 -1,-1 -2,0 -3,1 -5,2 -18,10 -33,25 -53,36 -17,8 -33,19 -51,29 -29,15 -82,23 -107,-5 -2,-13 16,-50 21,-63 4,-11 9,-23 13,-34 15,-34 6,-47 -8,-15l-25 59c-2,-1 -33,-48 -21,-9 28,64 -18,86 -45,113 -3,5 -11,19 -13,21 -4,0 -1,-1 -4,-2 -1,-5 1,-6 3,-9l12 -18c5,-7 25,-32 12,-37 -3,3 -7,10 -9,14 -5,7 -24,38 -26,40 -4,-5 5,-14 8,-18 8,-12 29,-42 27,-53 -2,-12 6,-13 6,-25 -6,3 -14,16 -17,24 -4,8 -11,19 -18,22 1,-9 9,-24 12,-32 6,-13 17,-22 12,-31 -8,3 -7,15 -16,20 -2,-10 10,-27 14,-39 2,-4 5,-9 0,-11 -3,2 -9,16 -10,19 -2,3 -4,3 -5,5 -1,-1 -1,2 -1,-3l4 -10c1,-5 3,-9 5,-13 1,-3 3,-10 4,-13 1,-3 1,-5 2,-7 0,-4 0,-5 -3,-6 -3,1 -2,2 -4,6 -3,6 -4,17 -8,22 1,-10 4,-19 6,-28 0,-2 1,-5 1,-7 1,-5 7,-14 3,-18 -3,2 -3,8 -6,16 -3,4 -5,9 -8,14 -7,-10 1,-11 7,-31l8 -35c2,2 2,4 5,7 4,4 6,7 8,9 4,3 4,3 5,11 1,10 7,30 14,31 1,-5 -3,-10 -5,-15 -1,-2 -1,-2 -1,-4 -1,-7 -1,-5 -2,-13 0,-19 -1,-18 -11,-28 -4,-4 -6,-4 -8,-12 -1,-5 -3,-10 -4,-15 -2,-11 -4,-26 -3,-36l7 -32c2,-6 4,-10 6,-14 6,-8 30,-54 32,-64 -9,3 -21,21 -25,31 -3,5 -17,34 -19,36 -3,-5 -3,-31 -2,-38 1,-7 8,-28 7,-32 -4,-1 -6,2 -8,4 -11,15 -12,49 -9,67 3,14 -1,43 -5,56 -1,7 -9,34 -14,37 -3,-10 3,-25 5,-34l5 -31c0,-7 -5,-3 -7,-3l-4 0c-2,-5 12,-53 11,-60 -7,2 -8,6 -9,14 -1,4 -2,6 -3,9 -1,1 -3,6 -4,7zm-233 514c13,-1 25,-4 35,-14 37,-40 57,-18 17,-41 -12,-7 -18,-13 -32,-11 -11,2 -22,9 -20,7 2,-2 8,-9 16,-10 11,-2 16,-3 20,-3 12,-1 29,11 43,16 19,7 26,6 48,6 19,0 55,-7 75,-8 25,-1 28,-9 46,-26 15,-14 19,-62 2,-65 -1,-3 -15,-21 -16,-23 -18,-23 -5,-44 2,-66 11,-38 11,-74 5,-114 -2,-11 -4,-22 -6,-33l-15 -64c-2,-3 -20,-74 -24,-84l-1 -2c0,0 0,0 0,0l-2 2c0,1 0,2 0,3 -3,9 -8,25 -12,32l-21 30c-4,6 -8,10 -12,14l-13 13c-4,4 -22,24 -28,22 -3,-7 13,-18 20,-24l9 -6c8,-7 20,-23 26,-32 15,-19 10,-19 15,-30 6,-15 7,-16 9,-35 1,-13 2,-13 -2,-25 -21,-58 -40,-116 -67,-171 -38,-78 -51,-122 -110,-186 -19,-20 -47,-45 -75,-34 -13,5 -27,14 -38,21 -10,7 -27,24 -32,27 -17,9 -30,33 -39,49 -18,32 -39,62 -52,95 -11,27 -24,56 -35,83 -11,26 -27,56 -36,81 -8,24 -13,44 -20,67 -2,6 -2,5 0,11 1,4 3,7 4,11 3,7 6,13 10,19 22,31 21,13 36,23 2,2 6,5 9,6 21,5 10,-15 8,-26 -5,-20 -9,-61 -9,-81 0,-9 0,-19 0,-28 0,-5 -1,-25 1,-29 1,1 1,-2 2,7l3 24c2,45 11,106 31,146 4,7 8,15 13,21 3,5 11,16 11,23 -6,1 -13,-10 -16,-13 -2,-2 -5,-4 -8,-7 -13,-14 -5,-16 -22,-21 -4,-2 -8,-3 -11,-4 -14,-6 -18,-5 -36,-15l-8 -7c-12,-13 -14,-23 -19,-31 -4,-6 -2,-7 -5,-10 -1,3 -3,11 -4,15 -2,5 -4,11 -5,15 -24,42 -48,193 5,225 9,7 35,37 49,50 10,9 20,12 30,19 7,4 9,5 19,6 7,1 13,4 20,5 -5,-16 -23,-40 -35,-52 -15,-14 -13,-19 -34,-30 -6,-3 -11,-4 -12,-9 5,-1 4,1 8,3 31,9 22,-9 47,34 2,1 5,3 7,5 8,7 15,16 20,26 7,12 12,28 23,35 15,9 85,44 98,48 1,-14 3,-26 5,-39 5,-39 2,-47 2,-68 -10,-31 6,-25 -19,-57 -3,-4 -11,-10 -11,-18 7,-7 12,3 16,8 2,2 8,9 12,12 21,-49 -7,-173 13,-268 0,-7 2,-9 -1,-16 -2,-4 -3,-8 -5,-12 -9,-13 -16,-36 -21,-51 -9,-26 -18,-57 -24,-84 -2,-8 -9,-59 -7,-64 4,2 4,8 5,11 0,4 1,8 2,12 3,24 11,46 18,69 2,6 27,77 32,84 0,0 0,0 0,0l3 -3c3,-4 4,-38 4,-43 4,-35 4,-68 6,-103 2,-16 0,-32 1,-48 0,-1 0,-2 0,-3 1,-2 0,-1 1,-2 3,5 2,81 2,87 0,13 -2,28 -1,41 0,14 -1,30 -2,43 -1,28 -1,56 -3,84 0,17 -3,73 -2,86l2 -4c5,-7 10,-12 16,-19 24,-23 54,-41 80,-62 4,-3 7,-6 11,-8 19,-15 40,-31 48,-53 3,-9 1,-14 3,-17 2,1 1,0 2,3 3,14 -6,30 -14,41 -3,4 -5,6 -8,10 -6,7 -14,14 -20,20 -2,2 -19,15 -20,17 0,1 0,0 0,1 6,3 35,1 44,-1 25,-5 56,-21 74,-40 3,-3 8,-11 12,-11 1,4 0,4 -2,8 -15,22 -34,36 -60,45 -3,1 -6,1 -9,3 -9,5 -36,10 -47,11 -7,0 -16,1 -23,0 -6,0 -6,-2 -9,0 -10,6 -34,27 -45,36 -51,43 -29,59 -28,118 1,37 3,75 -9,111 0,0 -5,44 12,4 8,-20 59,-45 80,-79 2,-4 7,-16 10,-18 11,4 0,15 -3,21 -29,51 -40,38 -70,77 -3,5 -2,17 -2,24 11,6 32,7 44,2 4,-2 8,-5 13,-4 -2,4 -17,9 -23,10 -10,2 -20,0 -30,2 -11,3 -14,3 -18,10 -1,2 -2,4 -3,7 7,26 -20,134 8,91 2,-4 149,-49 182,-72 16,-12 41,-39 49,-58 1,-1 2,-4 2,-4 1,-1 1,-2 2,-2 9,-2 -5,18 -7,22 -4,7 -9,13 -14,19 -8,9 -15,17 -24,24 -59,48 -56,32 -110,68 -1,1 -2,3 -4,4 -72,11 -104,115 -28,110zm757 -362c4,-9 18,-36 24,-44 2,-3 9,-10 9,-12 -11,-3 -42,7 -53,11 -8,2 -48,18 -49,18 2,-4 6,-4 9,-8 7,-6 24,-12 33,-15 18,-6 32,-10 50,-14 20,-5 30,-10 34,-31 4,-27 0,-61 -7,-87 -3,-13 -3,-16 -12,-20 -17,-7 -37,-5 -56,-3 -10,1 -19,3 -28,5 -33,4 -64,1 -92,5l2 21c8,-2 14,-11 27,-8 -1,10 -26,16 -25,32 3,-1 9,-6 11,-9 3,-3 5,-6 9,-9 9,-7 11,-12 27,-13 -2,9 -22,21 -29,27 -5,4 -10,9 -13,15 -3,5 -7,14 -7,21 5,-1 16,-13 20,-18l19 -18c12,-10 27,-29 44,-30 -1,4 -30,29 -35,34 -3,3 -10,9 -12,12 7,-1 12,-9 18,-1 -3,7 -17,16 -22,20 -4,3 -18,17 -18,22 5,-4 12,-12 19,-11 1,7 -4,14 -7,17 -10,9 -29,28 -34,41 5,-3 9,-9 15,-10 4,0 3,2 5,3 3,-3 19,-19 24,-24 4,-4 9,-8 13,-12 12,-13 11,-13 19,-8 -1,1 -43,47 3,7 7,-6 6,0 11,-1 14,-1 40,-41 54,-29 -2,3 -53,42 -63,51 -14,13 -45,45 -55,58 -15,21 -16,20 -3,27 17,9 16,10 37,11 16,0 29,-1 45,-4l10 -2c0,0 1,0 2,0l1 1c-7,6 -42,11 -54,12 -3,1 -19,1 -19,1 6,20 53,12 55,19 -7,4 -51,-3 -58,-8 -6,-4 -9,-11 -13,-13 -8,-4 -13,-5 -18,-8 -5,-2 -7,-5 -12,-5l-13 22c5,-2 4,-6 14,-6 -2,22 -27,29 -30,47 4,-2 14,-12 17,-15 3,-3 11,-12 16,-13 -2,20 -37,39 -36,54 14,-8 30,-40 44,-43 0,7 -3,12 -7,17 -10,12 -30,29 -29,39 10,-3 16,-21 29,-26 2,16 -40,48 -42,59 6,-3 7,-13 24,-13 0,4 -6,11 -8,14 -4,5 -6,7 -9,12 -3,5 -17,20 -18,25 4,-2 13,-11 16,-15 6,-10 6,-17 15,-15 2,6 -2,10 -4,15 -4,7 -14,20 -19,26l-10 12c2,1 10,-4 12,-5 6,-2 9,0 16,0 12,0 22,-2 32,-5 32,-8 38,-21 50,-23 -1,9 -14,16 -23,20 -16,8 -47,17 -65,17 -9,0 -10,1 -17,5 -6,3 -9,2 -9,11l23 -8c27,-9 53,-1 78,-14 27,-15 19,-29 21,-40 2,-14 17,-27 20,-41 -28,7 -64,32 -93,16 0,0 75,-18 90,-25 10,-4 8,-2 11,-12 19,-50 27,-63 49,-108zm-334 180c8,9 9,32 12,38 8,16 32,35 44,38 -11,9 -49,-20 -60,-20 -8,1 -19,1 -20,6 -22,51 -47,-6 -71,-32 -9,-10 -23,-7 -21,-9l23 -32c2,-2 66,-18 93,11zm-964 -262c-45,-50 42,71 0,0zm-209 265c-11,-15 -22,-40 -28,-51 -7,-14 -10,8 3,23 7,8 -11,6 -15,-12 -2,-6 -14,3 7,22 5,4 10,-3 26,16 -49,-12 -70,-26 -87,-72 -15,-40 -28,-81 -36,-113 -5,-37 -18,-71 -30,-97 -12,-24 -27,-62 -11,-75 4,-2 45,5 51,5 8,1 18,3 24,6l5 25c-6,-2 -4,-7 -11,-4 -2,4 11,22 13,25 5,7 11,22 12,30 -7,-4 -11,-15 -18,-21 -2,-2 -5,-5 -7,-6 -11,-10 -17,-23 -32,-22 1,11 33,29 49,52 9,13 33,51 35,67 -5,-2 -6,-6 -11,-8 -1,17 7,13 16,21 5,4 9,19 9,28 -12,2 -24,-1 -33,-6 -7,-3 -18,-11 -25,-13 1,5 7,11 9,13 23,18 38,10 47,21 7,9 14,18 20,26 2,3 15,28 15,32 -2,-2 -10,-10 -12,-12 -7,-6 -18,-27 -27,-37 -2,-2 -3,-5 -7,-5 -1,11 10,30 16,40 5,7 10,8 20,18 4,3 6,6 10,9 6,6 12,12 15,23 -18,-10 -19,-24 -27,-23 1,12 16,30 25,39 3,2 6,4 7,6 2,2 5,19 5,22 -8,4 -8,-5 -11,-10 -9,-15 -20,-29 -31,-45 -5,-8 -4,-8 -11,-13 -7,-5 -20,-7 -33,-18 -6,-5 -7,-12 -11,-13 -1,4 5,12 7,15 15,19 39,22 61,57 5,9 17,23 13,33 -1,1 -3,2 -6,2zm66 -584c5,6 -2,29 -2,41 0,0 -2,19 -3,25 -3,0 -1,-15 -1,-18 0,-8 6,-48 6,-48zm-51 24c-10,-24 -37,-55 -51,-65 -25,-19 -23,-10 2,11 22,19 54,76 25,53 -8,-6 -23,1 8,15 15,8 -13,94 -16,110 -7,40 -2,9 -7,47 -1,10 -1,20 -2,30 -5,2 -8,1 -10,7 -1,4 4,8 6,10 8,8 5,16 4,27 -1,0 0,1 -1,-1 -1,-1 -1,-1 -1,-2l-15 -29c-8,10 2,29 7,38 11,17 6,0 7,30 -25,-17 -20,-41 -24,-18 -9,14 10,38 12,50 -5,-4 -15,-27 -18,-35 -12,-31 -16,-72 -22,-103 -1,-8 -6,-80 -6,-85 -4,-53 -19,-95 10,-156 7,-13 12,-19 25,-27 9,-5 27,-13 40,-12 3,2 7,5 10,9 4,8 2,11 6,13 5,-7 -6,-22 -7,-24 9,-1 26,-3 32,5 2,2 5,9 9,9 2,-6 -2,-10 -4,-13 4,0 7,0 10,1 5,0 4,0 6,4 3,5 8,16 9,22 1,6 1,23 -2,26l-11 -36c-7,4 -1,18 0,24 1,9 -3,19 -8,23 -4,-6 -1,-25 -12,-23 -1,4 3,13 3,19 1,12 3,14 -2,20 -2,-3 -1,-8 -7,-7 0,4 3,8 3,11 0,1 -5,13 -8,22zm1477 -96c-3,4 -22,43 -21,50 2,9 40,-12 42,-13 7,-7 -15,-32 -21,-37zm-789 -494l-25 0c1,9 13,75 24,71 6,-5 7,-25 6,-35 0,-13 -1,-25 -5,-36zm-379 84c0,3 18,35 25,40 2,1 2,1 4,1 3,-7 -5,-24 -8,-30 -2,-4 -5,-8 -8,-11 -3,-4 -8,-4 -13,0zm840 143c4,1 6,-4 7,-7 6,-9 37,-45 35,-55 -1,-4 -12,-16 -14,-17 -5,11 -30,70 -28,79zm-1445 396c5,3 24,15 30,17 45,22 14,-20 -6,-32 -15,-9 -25,-6 -24,15zm386 -338c-4,0 -6,-5 -9,-8 -7,-11 -45,-53 -43,-64 1,-5 13,-20 16,-22 28,-16 39,82 36,94zm868 71c-38,-4 -26,1 -71,14l-6 -17c-9,1 -6,12 -17,12 -2,-32 7,-11 16,-39 32,-99 -13,4 -19,10 -7,-3 -6,-13 -4,-21 7,-29 29,-129 -10,-18 -1,3 -2,6 -3,9 0,2 -1,3 -1,5 0,1 -1,2 -1,3l-1 2c-1,-2 -5,-23 -4,-27 4,-20 45,-141 -7,-15 -19,48 -16,65 -27,85 -3,-12 10,-66 12,-76 1,-10 -2,-2 3,-15l10 -24c2,-4 5,-8 6,-12 -8,-8 -11,4 -17,14 -4,7 -9,22 -11,25 -6,-2 -3,-16 -3,-23 -4,-2 -2,-3 -7,-2 -2,3 -3,13 -3,18 -1,7 0,12 -1,20 -1,7 -3,32 -8,35l4 -68c-16,2 -11,39 -17,54 -2,-5 -3,-2 -3,-15 0,-12 9,-32 4,-49 -8,1 -9,17 -10,26 0,5 -1,11 -2,15 -1,6 0,11 -7,11 -5,-82 19,-53 83,-90 43,-24 79,7 85,66 7,69 87,86 37,87zm8 959c8,3 18,5 24,7 4,3 7,4 9,5 12,6 6,16 -15,8 -8,-4 -19,-10 -33,-10 -5,-7 -7,-13 15,-10zm47 -5c-4,-4 -9,-2 -11,-6 8,-12 19,-4 11,6zm-1 5c-2,12 0,11 -7,6 -9,-6 -17,-8 -27,-12 17,-8 19,-2 34,6zm-885 -93c-18,11 -29,7 -13,10 13,3 23,1 32,-4 17,-11 40,-19 13,5 -14,13 -21,14 -14,14 29,-2 45,-15 68,-33 15,-12 16,-9 22,-28 1,-3 2,-6 3,-8 -10,-6 -16,-11 -23,1 -12,18 -33,27 -14,-1 9,-15 1,-16 -7,-13 -6,2 -9,5 -11,7 -17,21 -21,8 -8,-4 3,-2 6,-5 9,-7 -3,0 -5,0 -7,0 -5,0 -11,1 -17,4 -20,8 -40,9 -11,-7 4,-2 7,-4 11,-5 24,-13 -39,-13 -48,-19 -5,-4 -8,-9 -9,-16 4,0 8,-1 12,0 29,12 55,15 71,25 50,32 60,8 62,-9 -10,8 -26,8 -33,4 -11,-5 -45,-55 -34,-50 6,2 22,47 44,45 20,-1 26,-2 21,-22 -7,-32 -8,-41 -16,-48 -9,-8 -28,-15 -41,-24 -8,-5 -29,-13 -25,-24 11,4 16,10 24,17 10,8 15,12 26,12 1,-7 -7,-12 -15,-16 -9,-5 -16,-6 -18,-15 13,-2 26,14 40,22 4,2 9,3 6,-4 -5,-7 -22,-17 -30,-24 -10,-9 -34,-29 -34,-30 -4,-2 -9,-6 -13,-8 -8,-5 -21,-13 -19,-20 17,3 32,19 42,25 12,6 10,3 15,4 -11,-12 -46,-24 -41,-39l50 29c-5,-12 -8,-12 -19,-19 -8,-5 -27,-12 -32,-20 5,-14 19,11 27,2 -2,-3 -13,-14 -18,-21 -6,-9 -15,-17 -5,-21 4,2 6,7 8,10 19,22 50,51 77,58 -2,-3 -4,-7 -6,-10 -18,-9 -48,-33 -60,-49 -19,-24 -26,-33 -23,-40 4,-1 10,9 11,12 8,7 19,17 29,26 -5,-11 -13,-22 -11,-35 -2,-2 -3,-4 -6,-6 -23,-18 -45,-36 -74,-68 -19,-22 -27,-12 -50,-16 -9,-1 -20,-5 -36,-13 -30,-19 -14,-23 4,-7 10,9 27,11 32,12 23,7 40,8 11,-25 -8,-14 -3,-35 -8,-49 -6,-19 2,-36 4,-5 2,25 10,60 35,80 73,102 24,4 28,0 14,3 26,51 36,62 4,4 14,9 19,10l-6 -12c-11,-19 -42,-67 -38,-87 6,1 14,18 17,25 4,9 8,18 12,28 25,61 101,97 42,1 -4,-6 -8,-12 -11,-19 -9,-21 -8,-40 -22,-54 -3,-3 -6,-5 -9,-7 0,-2 -2,-4 -3,-5l-13 -16c-3,-4 -13,-20 -13,-25 9,2 16,15 21,22 5,7 12,21 19,23 0,-13 -9,-25 -15,-33 -5,-7 -15,-18 -17,-29 11,0 16,15 26,29 5,6 7,8 10,17 1,3 6,19 6,20 1,-4 -8,-55 -9,-62 -8,-2 -7,3 -19,-10 -2,-2 -10,-12 -11,-16 -2,-7 -4,-15 6,-5 3,8 9,18 21,12 12,-22 -88,-84 -108,-87 -17,-1 -24,10 -31,23 -1,2 -30,79 -30,82 -5,16 -14,82 -16,100 -9,75 -35,262 45,317 54,38 40,44 20,90 -13,29 37,75 76,57 21,-11 33,-9 7,7zm-33 -25c-8,2 -16,2 -20,0 -16,-5 -4,-3 16,-7 23,-6 31,3 4,7zm137 51l0 0c48,29 81,-35 0,0zm-19 2c10,-7 20,-20 35,-25 26,-8 21,-12 2,-37 -2,3 -5,5 -6,9 -8,21 -26,32 -45,41 -6,2 -8,8 -11,11 -12,13 -1,12 25,1zm212 -707c-10,-10 -19,-23 -21,-33 -3,-12 -21,-63 -16,-72 4,-6 14,49 17,57 8,17 4,25 25,38 0,0 4,4 8,7 10,6 20,13 3,-10 -5,-10 -23,-25 -25,-34 -4,-19 -25,-75 -14,-64 1,1 19,57 28,67 0,1 8,17 14,25 7,8 16,19 13,13 -6,-15 -19,-24 -21,-41 -3,-16 -11,-29 -18,-53 -1,-2 -4,-16 -3,-18 5,-15 18,41 24,55 5,10 -1,14 9,25 1,1 9,14 13,10 1,-2 -1,-9 -6,-18 -4,-12 -16,-30 -18,-42 -5,-25 -14,-26 -13,-59 1,-10 7,25 7,25 1,3 13,34 13,34 4,-6 -3,-44 -6,-51 -2,-5 4,-24 5,3 1,1 7,42 8,46 1,2 4,19 7,30 6,-2 9,-5 2,-16 -2,-8 -7,-15 -7,-20 0,-5 2,-1 7,5l0 1c0,-6 1,-6 -2,-13 -2,-5 -3,-8 -5,-13 -10,-30 -7,-36 -9,-64 -3,-2 -6,-4 -10,-6 -24,-12 -52,-29 -82,-19 -8,32 19,38 18,82 -3,71 33,108 65,161 3,5 6,10 9,16 4,10 9,33 12,37 5,-15 -4,-35 -9,-48 -1,-1 -4,-7 -6,-15 -6,-20 -3,-12 -16,-28zm1132 421c2,2 -10,8 -22,14 -28,14 -20,10 -33,36 -4,8 -7,14 -9,14 -5,0 -1,-24 6,-33 8,-10 11,-15 24,-22 8,-5 30,-14 34,-9zm-7 34c-5,1 -10,2 -10,4 -1,8 3,7 8,5 12,-5 15,3 0,6 -2,0 -3,1 -3,1 -1,8 2,2 6,2 9,-1 6,5 -5,7 -9,1 -12,10 -16,10 -7,1 5,-10 5,-11 -20,-14 -46,79 -50,61 -4,-12 26,-75 36,-82 8,-13 33,-23 46,-25 5,-1 -6,7 -8,9 -4,4 -4,5 -2,6 11,3 -1,7 -7,7zm-792 346c-5,-8 -1,-8 6,-3 18,10 6,14 37,13 3,2 10,-3 11,-2 -5,3 -10,6 -16,7l-5 0c-10,0 -20,-5 -33,-15z"/>
 </g>
</svg>
