<?xml version="1.0" encoding="UTF-8"?>
<!DOCTYPE svg PUBLIC "-//W3C//DTD SVG 1.1//EN" "http://www.w3.org/Graphics/SVG/1.1/DTD/svg11.dtd">
<!-- Creator: CorelDRAW X8 -->
<svg xmlns="http://www.w3.org/2000/svg" xml:space="preserve" width="0.839992in" height="0.459992in" version="1.1" style="shape-rendering:geometricPrecision; text-rendering:geometricPrecision; image-rendering:optimizeQuality; fill-rule:evenodd; clip-rule:evenodd"
viewBox="0 0 840 460"
 xmlns:xlink="http://www.w3.org/1999/xlink">
 <defs>
  <style type="text/css">
   <![CDATA[
    .fil1 {fill:#75C317}
    .fil0 {fill:#75C317;fill-rule:nonzero}
   ]]>
  </style>
 </defs>
 <g id="Layer_x0020_1">
  <metadata id="CorelCorpID_0Corel-Layer"/>
  <g id="_1411080927200">
   <path class="fil0" d="M215 129c-30,6 -45,35 -44,64 0,2 0,3 0,5l-6 0c-1,0 -2,0 -3,0 -1,-17 -3,-34 -6,-50 0,-7 -3,-10 -9,-9l-16 3c2,3 5,13 7,24 2,11 3,23 4,34 -2,1 -4,1 -6,1l-2 1c-1,-5 -2,-11 -3,-16 -7,-22 -22,-36 -37,-33 -8,2 -14,11 -12,19 17,2 27,5 31,21 1,4 2,8 3,13 -6,1 -10,3 -12,5 -3,3 -5,7 -4,11 1,3 2,5 5,6 4,-1 8,-3 12,-5 0,12 -3,23 -7,32 -3,7 -8,12 -12,13 -5,1 -8,-4 -13,-10 -9,1 -13,7 -11,14 2,7 12,13 25,11 20,-5 36,-34 36,-66 2,-1 5,-2 8,-3 2,22 2,41 3,49 1,6 6,9 13,8l14 -2c-1,-2 -3,-8 -4,-12 -2,-16 -4,-31 -5,-46 3,0 6,-1 9,-1 0,1 0,1 0,1 4,18 16,40 33,49 23,12 42,7 58,5 6,-1 13,-3 23,-7 11,-4 19,2 21,11 1,7 -2,14 -8,21 -2,0 -9,0 -12,1 -8,1 -23,5 -22,14 1,4 8,5 16,4 5,-1 11,-3 17,-6 10,3 18,11 20,23 3,17 -4,38 -31,42 -17,3 -29,-7 -40,-18 -6,4 -10,10 -10,15 2,15 31,19 48,17 46,-6 62,-38 58,-61 -2,-14 -12,-26 -28,-30 7,-8 11,-17 10,-26 -3,-18 -22,-25 -51,-20 -16,3 -45,5 -59,-4 -9,-5 -17,-15 -22,-30l4 0c3,-2 4,-5 4,-7 -1,-2 -5,-4 -12,-5 0,-3 -1,-6 -1,-9 -1,-23 9,-44 22,-47 6,-1 10,3 13,11 7,2 21,-1 18,-14 -1,-9 -14,-14 -27,-11zm215 150c-10,1 -20,7 -30,14 -3,-10 -6,-14 -12,-13 -3,0 -4,1 -10,6 3,7 -1,17 -5,18 -2,0 -3,-2 -4,-5 -1,-9 4,-24 10,-25 1,0 2,1 4,3 7,-3 10,-6 10,-9 -1,-5 -7,-6 -13,-5 -17,3 -32,22 -29,38 2,11 8,17 18,15 5,-1 10,-4 14,-10 0,1 0,2 1,3 -14,15 -24,35 -21,51 2,10 8,15 18,13 24,-4 25,-44 22,-66l-1 -4c10,-9 22,-16 34,-19 0,-4 -3,-6 -6,-5zm-50 86c-2,0 -3,-1 -3,-4 -2,-11 1,-25 8,-37 2,17 1,40 -5,41zm123 -98c-5,11 -13,18 -20,19 -2,0 -5,0 -8,-1 0,-2 0,-4 0,-6 -3,-16 -13,-25 -27,-23 -11,2 -17,9 -17,18 -8,3 -13,11 -11,22 2,12 13,26 31,23 13,-3 21,-12 23,-23 3,1 6,1 9,0 14,-2 26,-18 25,-25 0,-3 -2,-4 -5,-4zm-52 43c-4,1 -8,-4 -9,-9 -1,-5 1,-11 4,-11 0,-3 0,-4 0,-6 -1,-5 -4,-9 -7,-10 0,-2 2,-4 4,-4 6,-1 10,5 12,17 2,12 0,22 -4,23zm115 -55c-5,0 -10,2 -14,3 0,-2 0,-4 -1,-6 -1,-10 -8,-13 -16,-11 -7,1 -14,6 -22,14 0,-1 0,-3 0,-5 -2,-8 -6,-12 -12,-11 -3,0 -7,3 -10,7 4,10 5,16 7,26 1,9 4,33 6,51 3,19 7,25 17,23 3,0 7,-1 11,-3 -3,-9 -6,-21 -9,-34 -4,-29 0,-52 10,-54 1,0 2,1 3,4 0,1 0,4 0,7 -8,5 -14,13 -13,21 1,4 4,7 9,6 8,-1 15,-13 18,-25 9,-4 18,-6 25,-6 2,-1 3,-4 3,-5 -1,-3 -5,-3 -12,-2zm-34 33c-1,0 -2,0 -2,-1 0,-3 1,-7 5,-12 0,7 -2,13 -3,13zm118 -45c-6,11 -13,17 -21,19 -2,0 -4,0 -7,-2 0,-2 0,-4 0,-5 -3,-17 -14,-26 -27,-23 -11,1 -17,8 -17,18 -8,2 -13,11 -11,22 2,12 13,26 31,22 13,-2 20,-12 23,-23 3,1 6,1 9,1 14,-3 26,-19 25,-25 -1,-4 -2,-4 -5,-4zm-53 43c-3,0 -7,-4 -8,-9 -1,-6 1,-11 4,-11 0,-3 0,-5 -1,-7 0,-5 -3,-8 -7,-9 1,-2 2,-5 4,-5 6,-1 11,5 13,17 2,12 0,23 -5,24zm137 -56c-1,-3 -3,-4 -7,-4 -4,9 -11,21 -21,26 -1,-1 -1,-3 -1,-4 -2,-11 -8,-17 -16,-15 -11,1 -15,10 -14,17 1,6 6,12 15,14 -2,7 -6,13 -9,14 -5,0 -11,-10 -15,-24 10,-17 17,-40 15,-55 -2,-8 -6,-13 -15,-12 -25,5 -26,45 -21,70 4,26 20,39 36,36 13,-2 21,-16 24,-30 16,-5 30,-26 29,-33zm-67 -27c1,0 1,1 2,3 1,5 -1,17 -6,31 -1,-16 1,-33 4,-34zm19 43c-1,-2 0,-4 1,-5 2,0 3,4 4,7 0,2 0,3 0,5 -3,-2 -5,-5 -5,-7zm115 -28c-5,11 -13,17 -20,18 -3,1 -5,0 -8,-1 0,-2 0,-4 0,-6 -3,-16 -14,-25 -27,-23 -11,2 -17,9 -17,19 -8,2 -13,11 -11,22 2,12 13,26 31,22 13,-2 21,-12 23,-23 3,1 6,1 9,1 14,-3 26,-19 25,-25 -1,-4 -2,-5 -5,-4zm-53 42c-3,1 -7,-3 -8,-9 -1,-5 1,-10 4,-11 0,-2 0,-4 0,-6 -1,-5 -4,-8 -8,-9 1,-2 3,-5 5,-5 5,-1 10,5 12,17 2,12 0,23 -5,23zm73 -29c3,-1 6,-2 7,-4 1,-11 -4,-61 -5,-68 -2,-4 -7,-6 -14,-5 -13,2 -11,13 -9,24 2,12 5,25 8,36 3,11 5,18 13,17zm5 29c8,-1 13,-12 12,-17 -1,-5 -7,-7 -14,-6 -8,1 -13,6 -12,12 0,5 6,12 14,11zm-510 -86c-4,17 -14,36 -19,37 -3,0 -4,-3 -5,-9 -1,-7 -1,-16 -2,-20 -1,-11 -6,-15 -15,-13 -3,0 -5,1 -8,2 2,2 3,5 4,10 0,6 1,12 1,18 -3,9 -8,14 -10,14 -2,0 -3,-2 -4,-7 -1,-8 -2,-19 -3,-23 -1,-8 -4,-11 -11,-10 -4,1 -8,2 -12,3 2,5 3,8 4,14 1,10 2,19 3,24 2,12 8,17 17,15 9,-1 15,-9 19,-16 3,8 9,12 17,10 19,-3 32,-41 31,-46 0,-4 -4,-5 -7,-3zm85 -10c0,-2 -2,-4 -6,-4 -4,9 -11,22 -22,27 0,-2 0,-3 0,-4 -2,-11 -8,-17 -16,-16 -11,2 -16,11 -14,18 1,6 6,11 14,13 -1,7 -5,14 -9,14 -4,1 -10,-10 -14,-23 10,-17 17,-41 14,-55 -1,-8 -5,-13 -14,-12 -25,4 -26,44 -22,69 5,27 21,39 36,37 14,-3 22,-17 25,-30 16,-5 30,-26 28,-34zm-66 -26c0,0 1,1 1,3 1,5 0,17 -5,31 -1,-16 0,-34 4,-34zm18 42c0,-1 0,-4 2,-4 2,0 3,4 3,7 1,1 1,3 1,5 -3,-2 -5,-5 -6,-8zm118 -32c-4,17 -14,36 -19,37 -2,1 -4,-2 -5,-9 -1,-6 -1,-16 -1,-20 -2,-11 -7,-15 -16,-13 -2,0 -5,1 -7,2 1,2 2,6 3,11 1,5 1,11 2,17 -4,9 -9,14 -11,14 -2,0 -3,-2 -4,-7 -1,-7 -2,-19 -2,-23 -2,-8 -5,-11 -12,-10 -4,1 -8,2 -12,4 2,4 3,7 4,13 2,10 2,20 3,24 2,12 8,17 17,16 9,-2 15,-9 19,-17 4,8 9,12 17,10 19,-3 32,-40 32,-46 -1,-4 -5,-5 -8,-3zm126 -17c-7,18 -21,35 -30,36 -4,1 -6,-3 -7,-10 -1,-6 -2,-14 -3,-21 -1,-8 -7,-12 -15,-11 -11,2 -16,14 -19,28 -2,-14 -7,-25 -14,-24 -15,3 -18,20 -24,42 0,-5 0,-13 -1,-22 -2,-9 -5,-17 -12,-16 -4,1 -8,3 -10,6 7,14 7,31 8,49 3,2 8,4 13,3 16,-3 21,-41 24,-46 0,1 1,3 2,8 1,11 1,22 1,24 3,4 7,6 12,5 6,-1 9,-8 13,-23 1,-7 3,-14 4,-17 1,6 0,13 2,22 2,12 9,17 20,15 28,-4 46,-39 45,-45 -1,-3 -4,-4 -9,-3zm62 -12c-7,21 -19,37 -29,38 -5,1 -9,-1 -13,-5 7,-7 15,-17 13,-29 -2,-12 -9,-18 -20,-16 -15,3 -24,19 -21,38 3,19 19,30 39,27 26,-5 42,-44 41,-51 0,-4 -4,-5 -10,-2zm-46 1c1,-1 3,1 3,4 1,7 -1,13 -5,18 -1,-2 -1,-5 -2,-7 -1,-8 1,-15 4,-15z"/>
   <path class="fil1" d="M174 388c-4,1 -34,6 -15,12 5,1 30,-5 21,-12 -1,-1 -5,-1 -6,0zm-157 -208c-8,-2 -13,-13 -12,0 0,4 20,11 20,5 0,-4 -5,-4 -8,-5zm168 -131c0,3 3,17 13,6 0,0 -12,-12 -13,-6zm213 10c-4,-1 -2,7 -2,13 0,3 0,7 0,10 8,0 7,-23 2,-23zm168 -46c-1,7 -21,50 4,22 1,-1 17,-46 1,-27 -3,4 -4,0 -5,5zm224 59c-12,9 -23,14 -5,13 10,0 21,-25 5,-13zm-16 231c-9,1 -28,0 -6,8 25,8 24,-6 9,-6 -2,0 0,-2 -3,-2zm-204 51c6,22 6,34 14,17 10,-18 -16,-25 -14,-17zm-207 73c-15,14 -15,24 -12,29 2,4 7,0 10,-5 5,-6 6,-28 2,-24z"/>
  </g>
 </g>
</svg>
