<?xml version="1.0" encoding="UTF-8"?>
<!DOCTYPE svg PUBLIC "-//W3C//DTD SVG 1.1//EN" "http://www.w3.org/Graphics/SVG/1.1/DTD/svg11.dtd">
<!-- Creator: CorelDRAW X8 -->
<svg xmlns="http://www.w3.org/2000/svg" xml:space="preserve" width="2.65748in" height="2.61811in" version="1.1" style="shape-rendering:geometricPrecision; text-rendering:geometricPrecision; image-rendering:optimizeQuality; fill-rule:evenodd; clip-rule:evenodd"
viewBox="0 0 2657 2618"
 xmlns:xlink="http://www.w3.org/1999/xlink">
 <defs>
  <style type="text/css">
   <![CDATA[
    .fil1 {fill:#154933}
    .fil0 {fill:#76C04E;fill-rule:nonzero}
    .fil2 {fill:#154933;fill-rule:nonzero}
   ]]>
  </style>
 </defs>
 <g id="Layer_x0020_1">
  <metadata id="CorelCorpID_0Corel-Layer"/>
  <path class="fil0" d="M1384 289c30,-68 40,-21 112,-60 14,-8 28,-12 45,-13 35,-1 49,15 54,42 23,112 42,75 56,127 7,-8 16,-15 22,-17 17,-6 33,-3 74,-10 18,-3 23,20 20,43 -1,29 -25,32 36,18 26,-7 56,-10 98,-16 24,-4 46,-22 67,-11 11,7 28,29 36,43 22,42 32,47 38,95 3,24 11,87 12,112 3,45 -1,32 9,55 11,28 0,58 4,88 1,7 2,9 7,12 10,6 55,-20 68,-21 24,-2 51,-2 74,18 18,14 18,116 12,128 -7,13 -26,33 -33,45 -5,9 -9,17 -13,26l-9 18c81,-58 90,-2 76,6 -27,15 -15,49 -13,71 2,28 -23,89 -30,109 6,26 3,53 -7,66 -12,15 -22,-41 -113,20 -133,89 -175,27 -345,47l-47 14c1,26 -7,50 -19,61 -14,13 -14,-44 -114,0 -68,31 -176,87 -251,44 -31,19 -75,22 -120,-1l-102 -50c-105,-52 -107,9 -122,-6 -6,-6 -11,-15 -14,-26 -2,-3 -4,-8 -6,-15 -5,-14 -8,-10 -13,-10 -141,0 -137,-73 -268,-66 -46,2 -43,18 -86,3 -14,-5 -28,-17 -45,-25 -79,-24 -77,21 -91,8 -18,-15 -27,-67 -12,-103 3,-7 7,-14 11,-20 -33,-57 -14,-115 -13,-147 0,-13 -5,-31 0,-35 10,-8 42,10 56,10 0,-13 0,-4 -17,-31 -1,-11 -37,-54 -15,-121 25,-16 49,-6 59,-5 7,1 26,3 31,4 2,-23 -12,-64 -13,-92 -3,-47 -7,-118 11,-161 5,-11 10,-18 19,-23 28,-18 79,-34 112,-34 26,0 52,5 75,15 104,43 95,47 101,-100 1,-25 13,-58 14,-81 1,-25 -12,-54 6,-70 37,-33 130,-18 192,-1 40,11 72,46 74,47 5,-3 9,-10 13,-15 15,-20 35,-34 52,-54 16,-20 23,-33 51,-25 21,6 50,17 67,30 13,10 47,49 61,53 2,-4 4,-9 6,-13zm754 247c7,4 28,29 21,36 -2,2 -40,22 -42,14 -1,-7 18,-47 21,-50zm-814 -495l25 0c4,12 5,23 5,37 1,9 0,29 -6,34 -11,4 -23,-62 -24,-71zm-341 85c3,3 6,6 8,11 3,6 11,22 8,29 -2,1 -2,1 -3,0 -7,-6 -26,-38 -26,-41 5,-3 10,-4 13,1zm835 136c-2,3 -4,7 -8,7 -2,-10 23,-69 28,-80 3,2 14,14 14,18 3,9 -29,46 -34,55zm-1429 388c21,11 51,53 6,32 -6,-3 -25,-14 -30,-18 -1,-21 9,-23 24,-14zm326 -417c28,-16 39,82 37,93 -5,1 -7,-4 -9,-8 -8,-10 -46,-52 -44,-64 1,-4 13,-19 16,-21z"/>
  <path class="fil1" d="M1358 306c5,2 57,46 58,49 38,35 4,80 -19,54 -4,-16 9,-40 0,-53 -7,6 -4,12 -5,23 0,9 0,18 -7,21 -5,-10 -4,-17 -1,-29 3,-10 6,-18 4,-29l-5 0c-4,11 -5,43 -9,49 -3,2 -5,1 -8,-1 -2,-7 8,-43 8,-54 -4,1 -7,5 -8,9 -2,6 -3,23 -5,34 -1,6 -2,9 -9,9 -2,-32 14,-45 9,-66 -2,-1 -1,-1 -3,-1l-5 13c1,2 -4,51 -18,55 0,-15 14,-44 5,-64 -8,3 -7,34 -8,44 -7,-2 -16,-18 -21,-25 -6,-8 -13,-17 -20,-25 -2,-2 -3,-3 -5,-6 -4,-4 -11,-7 -17,-17 -7,-11 -8,-21 -12,-34 -2,0 -6,-1 -9,-1 -3,9 0,10 1,22 2,17 22,34 34,44 9,8 18,17 25,26 7,10 13,24 14,38 -4,2 -13,7 -16,9l-29 21c-5,3 -11,9 -15,11 -9,-7 -12,-36 -15,-40 -7,3 -5,21 -1,27 1,4 4,7 6,11 1,2 3,4 2,6 -1,2 -3,4 -6,2 -9,-5 -12,-46 -17,-52 -7,7 -2,25 0,34 2,8 9,25 9,31 -15,-1 -16,-57 -22,-68 -1,0 0,-1 -2,2 -1,2 -1,7 -1,10 0,19 6,31 6,44 -1,-2 -2,-8 -4,-11l-10 -34c-5,-14 -12,-33 -12,-49 0,-18 2,-35 6,-52 3,-11 10,-36 18,-41 -1,8 -16,47 1,43 1,-4 1,-10 1,-14 3,-26 21,-52 36,-40 28,21 95,64 101,65zm364 104c0,-13 12,-8 20,-21 5,-6 15,19 -10,24 -3,0 -9,0 -10,-2l0 -1zm-52 -2c-6,-9 10,-17 18,-17 5,-1 32,-6 35,-8 2,-2 8,8 -7,9 -2,1 -15,7 -17,9 -5,5 -9,14 -13,20 -13,17 -16,-13 -16,-13zm-19 -23c7,-8 16,-15 22,-17 17,-6 33,-3 74,-10 18,-3 23,20 20,43 -1,29 -25,32 36,18 26,-7 56,-10 98,-16 24,-4 46,-22 67,-11 11,7 28,29 36,43 22,42 32,47 38,95 3,24 11,87 12,112 3,45 -1,32 9,55 11,28 0,58 4,88 1,7 2,9 7,12 10,6 55,-20 68,-21 24,-2 51,-2 74,18 18,14 18,116 12,128 -7,13 -26,33 -33,45 -5,9 -9,17 -13,26l-9 18c81,-58 90,-2 76,6 -27,15 -15,49 -13,71 2,28 -23,89 -30,109 6,26 3,53 -7,66 -12,15 -22,-41 -113,20 -133,89 -175,27 -345,47 -12,4 -29,9 -47,14 1,26 -7,50 -19,61 -14,13 -14,-44 -114,0 -68,31 -176,87 -251,44 -31,19 -75,22 -120,-1 -27,-13 -53,-26 -102,-50 -105,-52 -107,9 -122,-6 -6,-6 -11,-15 -14,-26 -2,-3 -4,-8 -6,-15 -5,-14 -8,-10 -13,-10 -141,0 -137,-73 -268,-66 -46,2 -43,18 -86,3 -14,-5 -28,-17 -45,-25 -79,-24 -77,21 -91,8 -18,-15 -27,-67 -12,-103 3,-7 7,-14 11,-20 -33,-57 -14,-115 -13,-147 0,-13 -5,-31 0,-35 10,-8 42,10 56,10 0,-13 0,-4 -17,-31 -1,-11 -37,-54 -15,-121 25,-16 49,-6 59,-5 7,1 26,3 31,4 2,-23 -12,-64 -13,-92 -3,-47 -7,-118 11,-161 5,-11 10,-18 19,-23 28,-18 79,-34 112,-34 26,0 52,5 75,15 104,43 95,47 101,-100 1,-25 13,-58 14,-81 1,-25 -12,-54 6,-70 37,-33 130,-18 192,-1 40,11 72,46 74,47 5,-3 9,-10 13,-15 15,-20 35,-34 52,-54 16,-20 23,-33 51,-25 21,6 50,17 67,30 13,10 47,49 61,53 2,-4 4,-9 6,-13 30,-68 40,-21 112,-60 14,-8 28,-12 45,-13 35,-1 49,15 54,42 23,112 42,75 56,127zm-650 879c0,7 0,8 -8,6 -9,-28 4,-69 13,-50 2,3 -8,32 -5,44zm14 -13c2,13 5,25 8,38 -11,7 -18,-24 -8,-38zm27 30c-8,18 -13,-19 -17,-32 2,-21 15,-33 14,-20 0,4 -1,9 -1,13 3,-5 5,-9 6,2 1,24 9,19 11,-1 1,-8 -17,-62 -1,-30 31,51 4,37 153,96 3,1 30,9 31,9 -27,-16 -29,-31 -24,-27 14,12 17,4 7,-8 -14,-16 -14,-52 -21,-45 -9,2 0,20 3,29l0 0c-6,18 -23,-16 -26,-24 -4,-16 -15,-36 -21,-34 -2,5 7,29 9,34 2,7 5,13 8,19 1,2 5,2 7,4 0,1 -1,2 -1,2 -7,2 -10,-8 -15,-13 -1,-1 -1,-2 -2,-3 -7,-13 -17,-51 -18,-52 -5,2 -9,4 -9,10 3,18 9,30 19,46 -5,15 -12,-9 -16,-11 -13,-14 -20,-47 -23,-44 -1,-1 -5,-1 -6,0 -2,1 -2,2 -1,5 1,13 11,32 22,43 0,0 0,1 0,1 19,22 -20,-3 -22,0 -1,2 -1,4 -1,5 -19,-7 -25,-16 -35,-30 -7,-12 -3,-24 -3,-26 1,-2 0,0 1,-2l1 -2c9,0 7,2 22,2 13,0 13,-1 23,-4 2,-3 13,-6 17,-6 7,0 11,5 16,8 14,7 26,2 39,8 196,85 107,195 22,150 -12,1 -40,-30 -43,-42 -5,-16 -15,-6 -2,9 44,55 -17,25 -16,-2 0,-22 -16,-37 -8,-8 17,61 -14,17 -13,-2 1,-25 -10,-32 -10,-15 0,15 8,31 10,41 2,13 -15,10 -20,-9 -6,-19 -9,-42 -9,-50 -12,1 -3,28 -2,35 5,37 -15,-16 -17,-18 -5,-9 -4,-30 -4,-30 -13,-21 -4,24 -4,25 2,15 7,24 13,35 -19,8 -21,-40 -37,-53 -5,-5 -5,7 -6,12zm-124 -735c-1,9 0,10 4,16 9,13 32,42 16,33 -3,-1 -10,-5 -11,-7 -5,-8 -19,-28 -26,-30 -1,18 30,45 37,55 12,40 -44,-51 -44,-31 2,35 53,77 36,74 -20,-4 -38,-57 -44,-62 -2,-1 -1,-1 -3,-1 -1,4 -2,8 0,14 4,13 14,26 22,35l9 9c3,3 6,7 10,10 6,6 14,11 12,26 -24,-3 -47,-27 -58,-46 -3,-5 -8,-14 -12,-18 -3,-3 0,-1 -3,-2 -1,37 51,59 64,74 5,6 2,15 0,22 -5,13 -4,9 1,19 4,6 5,15 4,24 -7,-4 -8,-14 -14,-16 -2,2 -3,6 -4,9 -8,18 4,13 5,35 -4,-3 -4,-8 -8,-14 -2,-3 -8,-8 -12,-9 0,6 10,24 13,30 5,8 13,21 15,31 -4,-1 -4,-3 -7,-7 -5,-8 -9,-17 -12,-26l-11 -27c-3,-5 -3,-7 -6,-8 -7,11 23,70 24,86 -5,-4 -19,-32 -22,-40 -3,-8 -13,-43 -18,-46 -4,6 0,14 3,24 2,8 5,17 8,24 4,12 19,31 15,46 -14,-9 -31,-53 -37,-71 -8,-26 -16,-60 -19,-90 -3,-33 -5,-68 11,-93 39,-59 4,-237 23,-295 11,-32 51,-29 80,-29 16,0 33,2 48,4 25,4 43,10 65,19 11,5 31,13 41,20 11,7 12,28 8,35 -1,7 -3,12 -7,1 0,-1 -4,-29 -8,-23 -3,5 -2,8 -4,10 -1,-4 -3,-9 -8,-10 -4,16 4,39 -5,52 -4,-6 1,-44 -6,-53 -11,5 3,43 -11,49 0,-17 6,-42 0,-55 -12,7 0,55 -12,46 -2,-18 2,-30 1,-41 -2,-20 -6,-16 -7,-1 0,13 -1,34 -7,39 -4,-6 -1,-26 -1,-34 0,-6 0,-15 -1,-24 -2,-15 -8,-15 -8,1 0,18 9,41 1,50 -4,4 -12,6 -19,5 -5,-14 3,-38 -6,-69 -10,7 1,35 -2,57 -3,18 -11,21 -19,30 -2,2 -6,6 -9,8 -6,-8 -6,-20 -12,-22 -4,17 10,21 6,39 -2,6 -10,31 -15,34 -14,-9 -24,-48 -28,-64 -3,-13 -5,-25 -8,-38 -3,-9 -8,-28 -12,-34 -11,4 3,16 -8,17 -5,0 -9,-1 -13,-3 -5,-3 -5,-9 -13,-6 0,7 9,12 16,13 4,1 8,2 12,3 11,2 12,19 13,31 3,22 12,48 21,67 11,23 19,21 18,41 -10,1 -10,-8 -16,-9 1,10 4,10 6,16 -3,-1 -8,-6 -10,-9 -3,-4 -5,-8 -11,-9 0,6 4,12 7,16 2,3 9,10 10,14 -11,-3 -24,-21 -30,-32 -2,-3 -1,-4 -5,-4l0 1c-1,5 -1,-3 -1,2 0,5 5,13 8,17 34,37 51,57 32,52 -7,-2 -7,-6 -15,-7 2,21 13,6 12,25 -9,1 -12,-7 -17,-9 -7,21 34,31 12,37 -9,-2 -17,-15 -22,-23l-2 0zm212 -123c0,-14 3,-33 7,-45 3,-9 38,-91 48,-94 2,3 -5,51 -2,64 2,34 46,114 15,157 -1,2 -11,18 -13,20 -2,3 -12,18 -14,19 -1,-7 0,-19 -4,-24 -7,7 -4,29 -5,40 -2,-2 -2,-5 -2,-8 -6,-38 5,-57 2,-68 -8,1 -7,16 -11,22 -1,-6 2,-26 4,-31 2,-9 6,-19 3,-28 -7,4 -12,37 -17,41 -15,-16 24,-61 10,-73 -6,5 -10,38 -19,46 -3,-22 13,-51 15,-63 -12,2 -13,21 -17,25zm409 60c1,-11 14,-29 14,-38 -5,0 -5,4 -10,13 -8,12 -10,17 -14,31 -4,16 -6,91 -11,100 -4,-16 -3,-53 -1,-69 5,-35 12,-53 30,-79 5,-8 9,-15 16,-20 11,-11 41,-14 61,-13 2,2 5,11 7,14 11,20 26,48 38,67 6,8 11,18 16,26 8,15 43,110 43,127 -4,-4 -5,-13 -12,-14 -6,12 3,22 3,33 -4,1 -10,3 -14,3 -3,-12 1,-36 -8,-42 -3,3 -5,8 -5,13 0,5 1,13 -2,17 -3,-9 -6,-16 -6,-27l-7 -2c-5,17 1,35 -6,40 -6,-8 0,-27 -9,-32 -9,5 -5,24 -3,34 3,15 5,22 1,36 -3,0 -5,-1 -6,-2 -1,-7 4,-14 3,-22 -1,-7 0,-23 -9,-20 -2,2 1,13 -1,17 -2,-7 1,-34 -8,-37 -2,5 -4,5 -4,13 0,6 0,10 1,16 1,4 1,13 0,17l-2 11c-2,4 0,1 -2,2l-8 -49c-8,0 -7,4 -7,10 0,7 0,11 0,17 1,9 5,25 -1,31 -4,-5 2,-4 -1,-15 -1,-7 -3,-9 -4,-16 -1,-12 2,-26 -3,-36 -8,4 -9,14 -7,24 1,5 2,9 2,15 -1,7 1,8 -5,11 -9,-10 -3,-54 -7,-68 -3,1 -4,4 -6,8 -4,9 -4,26 -3,36 0,6 3,48 2,50 -5,-6 -7,-46 -7,-57 -1,-24 12,-165 -8,-39 -1,5 -1,16 -3,20 -2,-6 -1,-37 -1,-45 0,-10 1,-19 3,-28 5,-27 -2,-39 -9,-6 -2,9 -3,19 -4,29 -3,33 -1,37 -1,65 0,4 0,5 -1,8 0,3 0,5 -2,7 -6,-22 -7,-100 0,-122 4,-13 11,-47 -6,-18 -17,28 -1,97 -8,109 -8,-5 -6,-62 -5,-74 2,-22 3,-51 12,-69 5,-9 10,-15 16,-24 2,-3 5,-8 7,-12 14,-21 10,-16 28,-33 7,-5 18,-9 20,-10 5,-4 5,-2 6,-5 -5,-3 -33,12 -40,17 -11,8 -18,22 -26,33 -5,8 -10,22 -16,23zm431 160c-2,-7 -12,-2 -8,-15 5,-15 2,-11 -5,1 -16,5 -7,-11 -15,-8 -3,-9 -2,-52 -6,-23l-9 27c-3,2 -17,0 -17,-1 -4,-4 -3,-14 -7,-19 -10,1 -6,11 -10,17 -4,-3 -3,-16 -3,-21 -12,0 -3,-9 1,-19 4,-6 7,-13 10,-19 7,-13 14,-26 20,-39 5,-9 5,-12 12,-17 6,-5 12,-9 17,-13 12,-11 11,-12 20,-25 2,-3 6,-6 3,-10 -4,1 -14,18 -25,27 -3,3 -6,6 -11,8 0,-28 -2,-40 15,-56 0,-6 -3,-15 -8,-16 -5,5 -7,18 -10,25 -4,9 -9,13 -10,26 0,25 -4,37 -13,56 -8,19 -29,46 -40,66 -3,5 -12,18 -16,19 -14,-20 -3,-22 -10,-43 -2,-5 -3,-9 -3,-15 1,-5 3,-13 -3,-14 -7,5 -1,34 -1,43 -4,5 -6,1 -15,18 -4,6 -10,18 -16,20 1,-7 11,-24 13,-31 -5,1 -11,8 -13,10 -3,3 -9,12 -12,12 -1,-16 9,-21 10,-31 -15,2 -15,20 -25,23 6,-20 2,-14 4,-28 1,-4 3,-4 0,-10 -8,2 -13,18 -20,21 1,-9 16,-24 16,-38 -5,1 -11,8 -14,11l-10 15c1,-12 11,-17 10,-31 -16,2 -21,32 -27,38 -6,-15 24,-49 25,-66 -19,6 -22,37 -35,48 -1,-14 28,-53 28,-68 -15,0 -24,38 -34,45 -1,-19 26,-55 29,-69 -10,2 -18,15 -22,24 -4,11 -11,21 -13,33 -4,-2 -6,-8 -6,-12 -1,-13 16,-28 15,-37l-13 -1c1,-4 66,-26 73,-29 52,-25 87,-43 146,-38 37,3 47,7 59,37 17,43 30,109 34,160 5,58 8,71 -9,127 -3,8 -9,31 -16,32 -2,-17 6,-35 11,-49 3,-8 14,-39 10,-48 -2,0 -1,-1 -3,2 -3,6 -7,22 -9,29 -2,9 -5,27 -10,33 0,-15 14,-58 19,-77 2,-8 6,-21 -3,-24 -5,6 -16,90 -28,97 -1,-19 18,-69 24,-92 3,-10 7,-23 3,-33 -1,1 0,0 -2,2 -3,5 -12,43 -14,49 -4,14 -9,43 -18,50l9 -32c6,-19 13,-45 18,-66 3,-9 7,-25 8,-34 -9,2 -20,51 -25,65 -1,3 0,3 -3,3 -4,-7 6,-29 9,-35 4,-10 10,-22 6,-35 -4,1 -5,4 -7,8 -2,3 -3,7 -4,11 -7,18 -13,59 -23,67 -2,-4 2,-13 2,-18zm-1196 -87l21 7 4 30c-8,-6 -7,-18 -10,-23 -1,-2 -3,-5 -5,-5l0 24c-4,-5 -10,-25 -10,-33zm1051 65c0,-3 12,-31 14,-33l1 5c1,8 -2,10 -4,14 -2,6 -5,12 -11,14zm-772 73c-3,28 5,38 4,56 -1,27 23,27 11,44 -2,-1 -11,-13 -12,-15 -7,-15 -9,-59 -18,-64 -2,3 -1,8 -1,11 0,11 0,21 2,32 1,6 1,13 4,19 2,6 6,8 4,17 -4,-2 -13,-16 -15,-20 -2,-6 -4,-24 -8,-27 -3,5 -1,21 0,27l5 22c0,4 1,2 -1,3 0,0 -1,3 -3,-1 -2,-4 -4,-24 -8,-32l-5 0c-1,4 1,7 2,14 1,6 2,10 2,16 1,9 8,18 12,23 10,14 21,30 14,52 -4,-2 -4,-8 -6,-13 -3,-7 -6,-5 -11,-8 -2,-3 -9,-33 -10,-39l-10 -39c-3,6 6,38 6,47 3,4 1,26 14,45 2,3 8,8 7,12 -5,1 -5,-2 -9,1 0,5 1,8 1,13 0,6 1,9 2,13 2,5 7,18 7,23 -6,-1 -7,-6 -8,-11 -1,-7 -3,-9 -3,-17 0,-4 -6,-26 -7,-30 -6,-2 -1,-3 -4,-9 -2,-3 -2,-12 -5,-20 0,-3 0,-3 0,-5l-5 -2c-1,5 1,7 1,15 2,9 1,19 4,28 2,6 1,9 2,15 0,5 2,7 2,15l3 48c1,5 3,10 -3,12 -3,-7 -6,-27 -7,-37 -1,-11 1,-32 -1,-41 -2,-8 -1,-14 -5,-18 0,0 -2,-1 -2,-1 -2,0 0,-1 -3,0 -1,3 3,12 3,16 2,7 2,15 2,22l2 43c-1,16 -1,28 2,44 1,12 5,28 5,41 -8,-9 -7,-24 -10,-36 -9,-46 -7,-38 -7,-84 0,-8 0,-15 -1,-22 0,-6 -2,-15 -10,-14 -1,2 3,12 3,16 0,7 -1,14 -1,21 0,6 1,36 -1,39 -3,0 -8,-5 -13,-8 -10,-6 -13,-4 -23,-18 -2,-2 -9,-11 -9,-13 -1,-4 7,-99 9,-115 4,-34 5,-81 8,-117 7,-84 17,-173 35,-257 2,-10 6,-26 14,-28 2,3 2,8 7,18 14,27 11,27 13,64 2,38 20,81 40,112 12,19 28,42 37,64 3,10 9,29 10,41 -8,-2 -3,-5 -13,-1 -1,-2 -4,-15 -5,-18 0,-3 0,-5 -3,-5 -4,12 -2,16 1,30 3,11 6,20 4,31 -4,-2 -7,-7 -10,-11 -2,-6 -3,-9 -5,-16 -1,-8 -3,-27 -8,-32 -8,12 11,61 11,68 -3,-2 -8,-5 -11,-8 -4,-2 -6,-5 -7,-11 -1,-5 -2,-11 -3,-16 0,-3 -1,-9 -2,-12 -1,-3 -1,-2 -3,-2zm-99 402c-4,-24 1,-55 -5,-74 -5,1 -7,22 -7,25 -3,28 4,63 9,90 -6,-6 -11,-25 -12,-37 -4,-37 -9,-48 -9,-91 0,-8 -1,-42 1,-47 4,10 5,29 8,34 1,0 4,-1 5,-2l-7 -33c-5,-17 -7,-13 -4,-34 5,8 11,13 17,20 8,8 24,12 30,25 6,11 8,26 13,41 11,36 -2,143 -39,83zm743 140c29,12 22,26 47,41 9,6 18,10 32,11 -2,6 -19,16 -27,18 3,-5 8,-7 11,-11 -2,-1 -2,-2 -5,-2 -1,0 -4,1 -5,1 -11,3 -10,17 -26,12 0,-5 2,-4 8,-11 1,-1 6,-7 7,-10 -7,-1 -20,16 -35,22 -12,5 -31,14 -47,10 1,-8 11,-7 18,-9 6,-1 13,-4 20,-6 12,-6 18,-14 22,-17 15,-13 -3,-8 -6,-4 -4,6 -14,13 -21,16 -4,2 -13,4 -17,2 1,-4 1,-2 11,-7 4,-2 18,-11 24,-18 7,-9 2,-12 -9,-1 -8,7 -20,14 -31,16 1,-2 2,-3 3,-5 2,-5 5,-3 15,-11 4,-3 15,-15 14,-22 -7,-1 -7,5 -11,9 -3,2 -7,8 -13,8 5,-15 5,-25 21,-32zm-213 93c7,1 123,-1 128,-8 2,15 -114,18 -128,8zm-14 9c2,-3 5,-5 10,-3 5,2 28,9 42,9 52,0 84,2 9,7 -2,-1 -55,-8 -57,-9 -3,-1 -2,-1 -4,-4zm-24 17c1,-2 6,-6 9,-7 4,2 29,5 52,9 53,8 30,14 -9,7 -2,-1 -48,-4 -52,-9zm-20 15c1,-3 4,-5 7,-7 18,10 42,16 75,12 -16,15 -87,6 -82,-5zm-308 -194c-3,3 -14,5 -17,6 -7,1 -31,-1 -33,-8 -51,7 -43,-54 -47,-67 -7,-16 6,-57 13,-25 8,29 58,73 84,94zm-403 -604c-2,-5 0,-12 -1,-18 -2,-7 -5,-17 -6,-23 8,1 9,5 11,17 1,8 1,20 -4,24zm-155 607c-15,3 -10,-2 -25,-13 -5,-4 -44,-60 -53,-57 0,2 38,52 52,63 2,2 6,6 8,8 -14,0 -66,-41 -76,-47 -25,-20 -16,-118 -20,-157 9,-2 26,-1 35,3 5,2 7,4 10,10 1,4 4,10 5,14 -12,8 -18,-16 -25,-18 -2,7 5,17 11,22 3,3 9,8 12,10 7,6 11,10 11,23 -25,-12 -9,18 -3,26 19,27 52,75 58,113zm-96 -38c8,2 57,45 68,46 11,2 22,2 33,2l11 18c1,3 2,5 3,8 -4,-2 -11,-9 -14,-12 -3,-3 -10,-9 -15,-9 0,9 0,5 8,15 6,8 18,18 26,22 5,2 6,-2 12,12 -12,-1 -42,-26 -49,-36 -2,-4 -2,-5 -5,-9 -5,-6 -14,-7 -6,2 2,2 4,5 4,7 -34,-9 -32,1 -53,-6 -22,-7 -25,-50 -23,-60zm1176 -162c-4,-10 -3,-8 6,-24 2,-4 4,-7 6,-11 1,-3 3,-9 5,-11 1,9 2,7 -2,14l-15 32zm5 29c-1,-3 -3,-14 -3,-17 0,-5 11,-26 14,-33 1,-2 2,-4 4,-6 2,10 3,4 0,15 -3,10 -8,35 -15,41zm-144 246c-3,11 -7,17 -8,33 0,8 2,11 3,18 1,3 1,5 3,8 2,3 3,5 5,6 5,-3 3,-6 2,-11 -3,-14 2,-36 6,-51 1,-4 5,-12 1,-15 -3,-2 -7,2 -8,3 -1,2 -3,7 -4,9zm19 39l6 10c2,3 4,7 7,8 3,-12 -8,-46 4,-59 -3,-11 -6,-3 -8,3 -4,8 -7,14 -9,25 0,5 1,9 0,13zm354 -85c16,-2 39,-9 47,-26 -2,-3 -3,-4 -6,-2 -2,2 -4,4 -6,6 -9,7 -17,12 -29,14 -6,1 -15,-1 -20,2 1,4 8,6 14,6zm-401 63c-2,11 -9,24 1,37 1,2 5,6 8,7 3,-6 -2,-9 -4,-13 -5,-8 0,-25 3,-34 1,-4 6,-10 6,-13 -5,-1 -9,2 -11,6 0,2 -2,9 -3,10zm-10 -10c-1,0 -5,-1 -7,-1 -4,7 -7,11 -7,21 -1,7 0,17 8,20 3,-9 -5,-8 0,-20 2,-6 8,-12 6,-20zm-370 -54c-17,5 1,39 17,38 0,-5 -2,-3 -6,-8 -9,-12 -7,-21 -11,-30zm452 78c0,6 0,8 2,12 3,7 7,13 14,11 1,-4 -2,-9 -4,-12 -1,-7 -2,-10 -3,-18 -6,-3 -9,-2 -9,7zm325 -105l-13 3 1 5c20,3 40,-12 37,-16l-4 0c-3,3 -15,8 -21,8zm-23 -13c-2,2 3,6 4,6 4,2 21,-5 26,-9 3,-2 6,-4 5,-8 -5,0 -23,9 -35,11zm-270 119c0,-4 1,-5 -3,-5 -7,17 8,29 12,28 4,-9 -8,-6 -9,-23zm-334 -265c2,-5 -3,-9 -6,-14 -1,-2 -7,-12 -12,-6 -2,2 1,4 3,6 4,5 10,17 15,14zm386 -164l-5 0c0,2 0,3 1,4l0 3c0,2 -1,4 -2,5 -6,-25 23,-60 26,-76 -14,3 -15,25 -23,28 0,-9 4,-24 7,-31 4,-7 12,-18 13,-26 -11,2 -14,20 -26,27 0,-5 11,-24 14,-31 6,-18 6,-15 20,-28 4,-4 3,-4 12,-11 10,-9 32,-24 45,-26 -7,18 -33,39 -34,60 3,-1 6,-5 10,-8 6,-5 1,-5 10,-19 11,-16 25,-27 27,-42 1,-5 6,-7 12,-12l28 -19c30,-22 36,-16 77,-17 17,-1 78,-3 89,3 -2,2 -15,13 -20,20 -6,7 -12,14 -18,23 -24,35 -32,76 -44,116 -17,53 -30,97 -52,148 -13,29 5,16 13,-6 7,-16 4,-10 14,-21 7,-7 4,-6 18,-19 4,-3 11,-6 13,-11 -3,0 -16,4 -18,6l-13 12c1,-5 4,-13 6,-18 2,-6 5,-11 7,-17 10,-27 28,-80 35,-106 3,-13 8,-25 11,-36 14,-36 24,-55 47,-83 2,-3 3,-5 5,-7 13,0 10,7 15,24 3,7 5,14 7,22 4,14 9,29 14,42 10,26 25,61 25,90 -23,-2 -26,9 -49,23 -15,9 -35,17 -56,19l19 -65c4,-14 16,-55 10,-69 -2,1 0,0 -1,1 -1,1 -1,2 -1,3 -3,8 -7,31 -9,39 -17,109 -90,119 -11,105 16,-3 21,-11 35,-16 12,-5 25,-11 33,-18 4,-3 10,-8 15,-10 3,-2 15,-8 17,-8 5,54 -7,98 -14,148 -3,15 -6,33 -6,48 -1,18 -8,51 -12,70 0,4 -1,8 -2,12 -3,11 -5,9 -10,31 -2,12 -9,32 -14,42 -8,15 2,13 -15,29 -3,2 -6,6 -9,8 -9,5 -15,5 -23,7 -4,1 -4,1 -2,6 0,0 0,1 1,1 9,-3 15,-5 24,-9l16 -8c0,6 -3,13 -4,19 -1,3 -1,7 -4,8 -2,1 -7,1 -8,4 2,1 6,0 9,-1 -1,10 -3,12 -7,17 -8,10 -29,0 -52,-11 -16,-6 -24,-42 -28,-57 -2,-4 -4,-7 -6,-11 -2,-4 -4,-6 -6,-9 8,-4 5,0 19,-8l18 -9c15,-10 26,-19 39,-30 13,-12 27,-20 40,-32 3,-4 9,-6 11,-10 -1,0 -1,0 -2,0 -2,0 -3,1 -5,2 -17,9 -33,25 -53,35 -16,9 -33,20 -50,29 -30,16 -83,24 -108,-5 -2,-13 16,-49 21,-62 4,-11 9,-23 13,-34 15,-34 7,-47 -7,-16l-26 59c-2,-1 -33,-48 -21,-9 28,65 -18,87 -45,114 -3,4 -10,18 -13,21 -4,-1 -1,-1 -4,-2 -1,-6 1,-6 4,-9l11 -18c5,-7 25,-32 12,-37 -3,3 -7,10 -9,13 -5,8 -24,39 -26,40 -4,-4 5,-14 8,-18 8,-11 29,-41 27,-53 -2,-12 6,-12 6,-25 -6,3 -13,17 -17,24 -4,8 -11,20 -18,22 1,-8 9,-23 12,-32 6,-13 17,-21 12,-31 -7,3 -6,16 -16,21 -2,-11 10,-28 14,-39 2,-5 5,-10 0,-12 -3,3 -8,16 -10,19 -2,3 -3,3 -4,6 -2,-2 -2,2 -1,-4l3 -10c1,-4 4,-8 5,-12 2,-3 3,-10 4,-14 1,-2 2,-4 2,-7 0,-4 0,-5 -3,-6 -3,2 -2,2 -4,7 -3,6 -4,17 -7,21 0,-10 4,-18 5,-27 1,-2 1,-5 1,-7 2,-5 7,-15 3,-18 -3,1 -3,8 -6,15 -3,5 -5,9 -8,14 -6,-10 2,-11 7,-31l8 -35c3,2 2,5 5,7 4,4 7,8 8,9 5,4 4,4 5,12 1,9 7,29 14,31 1,-6 -3,-10 -5,-15 -1,-3 0,-3 -1,-5 -1,-6 -1,-4 -1,-12 -1,-19 -2,-19 -12,-28 -4,-5 -6,-5 -7,-12 -2,-6 -3,-10 -5,-16 -2,-10 -4,-25 -2,-36l6 -31c2,-6 4,-10 7,-14 5,-8 29,-55 31,-64 -9,3 -20,20 -25,30 -3,5 -16,35 -19,37 -3,-6 -3,-31 -2,-39 1,-6 8,-28 7,-32 -4,-1 -6,2 -8,5 -11,15 -11,48 -8,66 2,15 -2,44 -5,56 -2,7 -10,34 -15,37 -3,-9 3,-25 5,-33l5 -31c1,-8 -4,-3 -7,-3l-4 0c-1,-5 12,-53 11,-60 -7,2 -8,6 -9,13 -1,4 -2,6 -3,9 -1,2 -3,7 -4,8zm-233 513c13,-1 26,-4 35,-14 37,-39 57,-17 17,-40 -12,-8 -18,-13 -32,-11 -11,2 -22,8 -20,6 2,-1 8,-8 16,-10 11,-1 17,-2 20,-3 12,-1 30,12 43,17 19,6 26,6 48,6 20,-1 55,-7 75,-8 25,-2 28,-9 46,-26 15,-15 19,-62 2,-66 -1,-3 -15,-20 -16,-22 -18,-24 -5,-44 2,-67 11,-38 11,-74 5,-114 -1,-11 -4,-21 -6,-32l-15 -65c-1,-3 -19,-74 -24,-84l-1 -1c0,-1 0,-1 0,-1l-1 3c-1,1 -1,2 -1,2 -2,10 -8,25 -12,33l-21 30c-4,5 -8,10 -12,14l-12 13c-5,4 -23,24 -29,22 -3,-8 13,-18 21,-24l8 -7c9,-7 20,-23 26,-32 15,-19 10,-19 15,-29 6,-16 7,-17 9,-35 1,-13 2,-13 -2,-25 -21,-58 -40,-116 -67,-172 -38,-78 -51,-122 -110,-186 -19,-20 -47,-45 -75,-34 -13,6 -27,14 -38,22 -9,6 -27,23 -32,27 -17,9 -30,33 -39,49 -18,31 -39,61 -52,95 -11,27 -23,56 -35,82 -11,26 -27,56 -35,82 -9,24 -14,43 -21,67 -2,5 -2,5 0,11 2,3 3,7 4,10 3,7 6,14 11,20 21,30 20,13 35,23 3,1 6,5 9,5 21,5 10,-14 8,-25 -5,-20 -9,-61 -9,-81 0,-10 1,-19 0,-28 0,-6 -1,-26 1,-29 1,1 1,-2 2,6l3 25c2,44 12,106 31,145 4,8 8,16 13,22 3,4 11,15 11,23 -6,1 -13,-10 -16,-13 -2,-2 -5,-4 -7,-7 -13,-14 -6,-16 -23,-22 -4,-1 -8,-2 -11,-3 -14,-7 -18,-5 -35,-16l-9 -6c-12,-14 -14,-23 -19,-32 -4,-5 -2,-7 -4,-9 -2,3 -4,11 -5,15 -2,4 -4,10 -5,15 -24,42 -48,193 5,224 9,7 35,37 49,50 10,9 21,13 31,19 6,5 8,6 18,7 7,1 13,3 20,4 -5,-15 -23,-40 -35,-51 -15,-15 -13,-19 -34,-30 -6,-4 -11,-5 -12,-9 5,-2 4,0 8,3 31,8 22,-9 47,33 3,2 5,3 7,5 8,7 15,17 20,26 7,12 12,29 23,36 15,8 85,44 98,47 1,-13 3,-26 5,-39 5,-39 3,-47 2,-68 -9,-31 7,-24 -19,-56 -3,-5 -11,-11 -11,-18 7,-8 13,2 16,7 2,2 8,9 12,13 21,-50 -7,-173 13,-268 1,-7 2,-10 -1,-16 -2,-4 -3,-9 -5,-13 -9,-12 -16,-36 -21,-50 -9,-27 -17,-57 -24,-85 -1,-8 -9,-58 -6,-63 3,1 3,8 4,11 0,4 1,8 2,12 4,24 11,46 18,69 2,5 27,76 32,84 0,0 0,0 0,0l3 -4c3,-3 4,-37 5,-43 3,-34 3,-68 6,-103 1,-15 -1,-31 0,-47 0,-1 0,-2 0,-3 1,-2 1,-1 1,-2 4,5 3,81 2,87 0,12 -1,28 -1,41 0,14 -1,29 -1,43 -2,28 -2,56 -4,84 0,16 -3,72 -2,85l2 -3c5,-7 11,-13 16,-19 24,-24 54,-42 80,-62 4,-3 8,-6 11,-9 19,-14 41,-30 48,-52 3,-10 2,-15 3,-18 2,2 1,1 2,4 3,14 -5,30 -13,40 -3,4 -6,7 -9,10 -6,7 -13,14 -20,20 -2,2 -19,15 -20,17 0,2 0,1 0,2 6,3 36,0 44,-1 25,-5 56,-22 74,-41 3,-3 8,-11 12,-11 2,5 0,5 -2,8 -15,23 -34,36 -60,45 -3,2 -5,2 -9,4 -9,4 -36,10 -47,10 -7,0 -16,1 -23,1 -6,0 -6,-3 -9,-1 -9,7 -34,28 -45,37 -51,42 -29,59 -27,117 0,38 2,76 -10,111 0,0 -4,45 12,4 8,-20 59,-44 80,-79 2,-4 7,-15 11,-18 10,5 -1,15 -4,22 -29,50 -40,38 -69,77 -4,5 -3,17 -2,24 10,5 31,6 43,1 4,-1 8,-4 13,-3 -1,4 -17,8 -23,9 -10,3 -20,1 -30,3 -11,2 -13,2 -18,9 -1,2 -2,5 -3,7 8,27 -20,134 8,91 2,-3 149,-48 182,-72 17,-11 41,-39 49,-58 1,-1 2,-3 3,-4 0,-1 0,-1 2,-1 9,-2 -6,17 -8,22 -4,7 -9,12 -14,18 -7,9 -14,17 -24,25 -58,48 -56,31 -110,67 -1,2 -2,4 -4,4 -71,12 -104,115 -28,110zm757 -362c5,-8 18,-36 24,-44 2,-3 9,-10 9,-12 -10,-3 -42,8 -53,11 -8,3 -47,18 -49,18 2,-4 6,-4 10,-7 6,-6 23,-12 33,-16 17,-5 31,-9 50,-13 19,-5 29,-11 33,-32 4,-26 1,-60 -7,-86 -3,-13 -3,-17 -12,-20 -17,-7 -37,-5 -56,-3 -10,1 -19,3 -28,4 -33,5 -64,2 -92,6l2 21c8,-2 14,-12 27,-9 0,11 -26,17 -25,33 3,-1 9,-7 11,-9 3,-3 5,-6 10,-9 8,-7 10,-13 26,-14 -2,9 -22,22 -29,28 -5,4 -10,9 -13,14 -3,5 -7,14 -7,22 5,-2 16,-14 20,-18l19 -18c12,-11 27,-29 44,-30 -1,3 -30,28 -35,34 -3,2 -10,8 -12,11 7,-1 12,-9 18,-1 -3,7 -17,16 -22,21 -4,3 -17,17 -18,22 6,-5 12,-13 19,-11 1,7 -4,14 -7,17 -10,9 -29,28 -34,40 5,-2 9,-9 15,-9 4,0 4,1 6,3 2,-3 18,-20 23,-25 4,-4 9,-7 13,-11 12,-13 11,-13 19,-9 -1,2 -43,47 3,8 7,-7 6,-1 12,-1 13,-2 39,-41 53,-29 -1,2 -53,41 -63,51 -14,13 -45,44 -55,58 -15,20 -16,19 -3,26 18,9 16,11 37,11 16,1 30,0 45,-3l10 -2c1,-1 1,0 2,0l1 0c-7,6 -42,11 -54,13 -3,0 -19,1 -19,1 6,19 53,12 55,18 -7,5 -51,-2 -58,-7 -6,-4 -9,-12 -13,-14 -8,-4 -13,-5 -18,-7 -5,-3 -7,-6 -12,-6l-13 22c5,-2 4,-5 14,-5 -1,22 -26,29 -30,46 5,-1 14,-11 17,-14 3,-3 11,-12 16,-14 -2,21 -37,40 -36,54 14,-8 30,-40 45,-42 -1,7 -4,12 -7,16 -11,13 -31,30 -30,40 10,-4 16,-21 29,-26 2,15 -40,48 -42,59 7,-3 7,-14 24,-14 0,4 -6,11 -8,14 -4,5 -5,8 -9,13 -3,4 -17,19 -18,24 5,-2 13,-11 16,-15 7,-10 6,-17 15,-15 2,7 -1,11 -4,16 -4,7 -13,20 -19,26l-10 11c2,1 10,-3 12,-4 6,-2 10,-1 16,-1 12,0 22,-2 32,-4 32,-8 38,-22 50,-23 -1,8 -14,15 -22,19 -17,8 -48,17 -66,17 -9,0 -10,1 -17,5 -6,3 -9,3 -9,11l24 -8c26,-9 52,0 77,-14 27,-14 19,-29 21,-40 2,-14 18,-27 20,-40 -28,7 -64,31 -93,16 0,0 75,-18 91,-25 9,-4 7,-3 10,-12 19,-50 27,-63 49,-109zm-334 180c8,9 10,32 12,38 8,17 32,36 44,39 -11,8 -49,-20 -60,-20 -8,0 -18,1 -20,5 -21,51 -47,-6 -71,-32 -9,-9 -23,-7 -21,-9l23 -31c2,-3 66,-19 93,10zm-963 -262c-46,-49 41,72 0,0zm-210 265c-11,-15 -22,-40 -28,-50 -7,-14 -9,8 3,23 7,7 -11,6 -15,-12 -1,-7 -14,3 7,21 5,5 10,-3 26,17 -48,-13 -69,-26 -87,-72 -15,-40 -27,-81 -36,-114 -5,-37 -18,-71 -30,-96 -12,-24 -27,-63 -11,-76 5,-2 45,5 51,6 8,0 18,3 24,6l5 25c-5,-3 -4,-7 -11,-5 -2,5 11,22 14,26 4,7 10,21 11,30 -7,-4 -11,-15 -18,-22 -2,-1 -5,-4 -7,-6 -11,-9 -17,-22 -32,-22 1,12 33,29 49,52 9,14 33,51 35,67 -5,-2 -6,-6 -11,-8 -1,18 7,14 16,22 5,4 9,19 9,27 -12,2 -24,-1 -33,-5 -7,-4 -18,-12 -25,-14 1,5 7,12 10,14 22,17 37,9 47,21 6,9 13,17 20,26 2,3 14,27 14,31 -2,-1 -9,-9 -12,-12 -6,-6 -18,-26 -27,-36 -2,-3 -3,-5 -7,-5 -1,11 10,29 16,40 5,6 10,7 21,17 3,4 5,7 9,10 6,5 13,12 15,22 -18,-9 -18,-24 -27,-23 2,13 16,31 26,39 2,2 5,5 7,7 1,1 5,19 4,21 -7,4 -7,-4 -11,-10 -9,-15 -20,-29 -31,-44 -5,-8 -4,-8 -11,-14 -7,-5 -20,-6 -33,-17 -5,-5 -7,-13 -11,-14 0,4 5,13 7,16 16,19 39,22 61,57 5,9 17,22 13,33 -1,1 -3,1 -6,1zm66 -583c5,5 -2,29 -1,40 0,1 -3,19 -3,26 -4,0 -2,-15 -2,-19 0,-8 6,-48 6,-47zm-51 23c-10,-23 -37,-54 -51,-64 -25,-19 -23,-10 2,10 22,19 54,77 25,54 -7,-6 -23,0 8,15 15,7 -13,93 -16,110 -7,40 -2,8 -6,46 -1,10 -2,21 -3,30 -4,3 -8,2 -10,7 -1,5 4,9 6,11 8,7 5,15 4,27 -1,-1 0,0 -1,-2 -1,0 -1,-1 -1,-1l-15 -29c-8,10 2,29 7,38 11,17 6,0 7,29 -25,-17 -20,-41 -24,-18 -9,15 10,38 12,50 -4,-4 -15,-26 -18,-34 -11,-31 -16,-72 -21,-103 -2,-8 -7,-80 -7,-86 -4,-53 -19,-94 10,-156 7,-12 13,-18 26,-26 8,-6 26,-13 39,-13 3,2 7,6 10,10 5,7 3,11 6,13 5,-7 -6,-23 -7,-24 10,-2 26,-4 32,4 2,3 5,9 9,10 2,-6 -1,-10 -3,-14 3,0 6,1 9,1 5,1 4,1 6,4 4,5 8,17 9,22 2,7 1,23 -2,27l-11 -36c-7,3 -1,18 0,24 1,9 -2,19 -7,22 -5,-6 -1,-25 -13,-23 -1,5 3,13 3,20 1,12 4,14 -2,19 -2,-3 -1,-7 -6,-6 0,4 2,7 2,11 0,1 -4,12 -8,21zm1477 -95c-3,3 -22,43 -21,50 2,8 40,-12 42,-14 7,-7 -14,-32 -21,-36zm-789 -495l-25 0c1,9 13,75 24,71 6,-5 7,-25 6,-34 0,-14 -1,-25 -5,-37zm-379 84c0,3 19,35 26,41 1,1 1,1 3,0 3,-7 -5,-23 -8,-29 -2,-5 -5,-8 -8,-11 -3,-5 -8,-4 -13,-1zm840 144c4,0 6,-4 8,-7 5,-9 37,-46 34,-55 0,-4 -11,-16 -14,-18 -5,11 -30,70 -28,80zm-1445 395c5,4 24,15 30,18 45,21 15,-21 -6,-32 -15,-9 -25,-7 -24,14zm387 -338c-5,1 -7,-4 -9,-8 -8,-10 -46,-52 -44,-64 1,-4 13,-19 16,-21 28,-16 39,82 37,93zm867 72c-38,-4 -26,1 -71,14l-5 -17c-10,0 -7,12 -17,11 -3,-32 6,-11 15,-39 32,-99 -12,5 -19,11 -7,-3 -5,-14 -4,-21 7,-29 29,-130 -9,-18 -1,2 -3,6 -4,9 0,2 -1,3 -1,5 0,1 0,2 -1,2l-1 3c-1,-3 -4,-24 -4,-27 4,-20 45,-142 -7,-15 -19,47 -16,64 -27,85 -2,-13 10,-67 12,-77 1,-10 -1,-2 3,-14l10 -25c2,-3 6,-8 6,-12 -8,-7 -11,5 -17,14 -4,7 -8,23 -10,26 -7,-2 -4,-16 -4,-23 -3,-2 -1,-3 -7,-3 -2,3 -3,14 -3,19 -1,7 0,12 -1,19 0,8 -3,32 -8,35l4 -68c-16,3 -11,40 -17,55 -2,-5 -3,-2 -3,-15 1,-12 9,-33 4,-49 -8,1 -9,17 -10,25 0,5 -1,11 -2,16 -1,6 0,11 -7,11 -5,-82 19,-54 83,-90 43,-24 80,6 85,66 7,69 87,85 37,87zm8 959c8,3 18,4 24,7 5,2 7,3 9,4 12,6 7,17 -14,8 -9,-3 -19,-9 -34,-10 -5,-7 -7,-12 15,-9zm47 -6c-4,-3 -9,-1 -10,-5 7,-12 18,-5 10,5zm-1 5c-1,12 0,11 -6,7 -10,-6 -18,-8 -28,-13 18,-8 19,-2 34,6zm-884 -93c-18,12 -30,7 -14,11 13,3 23,1 32,-5 17,-11 40,-18 13,6 -14,12 -21,14 -14,13 29,-2 45,-14 68,-32 15,-13 16,-10 22,-29 1,-3 2,-5 3,-7 -9,-7 -16,-12 -23,0 -12,19 -33,27 -14,-1 9,-14 1,-15 -7,-12 -6,2 -9,4 -11,6 -17,21 -21,9 -8,-3 3,-3 6,-6 9,-8 -3,0 -5,0 -7,0 -5,0 -11,2 -17,5 -19,8 -40,9 -11,-8 4,-2 8,-4 11,-5 24,-13 -39,-12 -48,-19 -5,-4 -8,-9 -9,-15 4,0 8,-2 12,0 29,11 55,15 72,25 50,31 59,8 62,-10 -11,9 -27,8 -34,5 -11,-6 -45,-56 -34,-51 6,3 23,47 44,46 20,-2 26,-3 22,-23 -8,-31 -8,-41 -17,-48 -9,-7 -28,-15 -41,-23 -8,-5 -29,-14 -25,-25 11,4 17,10 24,17 10,9 16,12 26,13 1,-8 -7,-12 -15,-17 -9,-5 -16,-5 -18,-14 13,-2 26,14 40,21 4,3 9,4 6,-3 -5,-8 -22,-18 -30,-25 -10,-8 -33,-29 -34,-29 -4,-3 -9,-6 -13,-9 -8,-4 -21,-13 -19,-20 17,3 32,20 43,25 11,6 9,4 14,4 -10,-12 -46,-24 -41,-39l50 29c-5,-12 -8,-11 -19,-18 -8,-6 -27,-13 -32,-20 6,-14 20,10 27,2 -2,-4 -13,-15 -18,-22 -6,-9 -15,-17 -5,-20 4,2 6,7 9,10 18,21 49,51 77,57 -2,-3 -5,-6 -7,-9 -17,-10 -48,-34 -60,-50 -18,-23 -25,-33 -23,-39 4,-1 10,9 11,12 8,6 19,17 29,26 -5,-12 -13,-23 -11,-36 -2,-2 -3,-3 -6,-6 -23,-17 -45,-35 -73,-67 -20,-22 -28,-12 -51,-16 -9,-1 -20,-5 -36,-14 -30,-18 -14,-22 4,-6 10,9 27,10 32,12 23,7 40,7 12,-25 -9,-14 -4,-36 -9,-49 -6,-20 2,-36 4,-6 2,26 10,61 35,80 73,102 24,4 28,1 14,2 27,51 37,62 3,3 13,9 18,10l-6 -12c-10,-19 -42,-67 -38,-87 6,0 14,17 17,24 4,9 8,19 12,28 26,62 101,97 42,2 -4,-7 -7,-12 -11,-20 -9,-20 -7,-39 -22,-53 -3,-3 -6,-6 -8,-8 -1,-1 -3,-3 -4,-5l-13 -16c-3,-3 -13,-20 -13,-24 9,1 16,14 21,21 5,7 12,21 19,24 1,-13 -9,-26 -14,-33 -6,-8 -16,-19 -18,-30 11,1 17,16 26,29 6,7 7,9 10,18 1,2 7,19 7,19 0,-3 -9,-54 -10,-61 -8,-3 -6,2 -18,-10 -3,-2 -11,-13 -12,-17 -2,-6 -4,-14 6,-5 3,8 9,19 21,13 12,-23 -87,-85 -108,-88 -17,-1 -23,11 -31,24 -1,1 -29,79 -30,81 -5,17 -14,82 -16,100 -9,75 -35,262 45,318 54,37 40,44 20,90 -13,29 37,75 76,56 22,-10 34,-9 8,7zm-34 -24c-8,1 -16,1 -20,0 -16,-6 -4,-3 16,-8 23,-5 31,4 4,8zm138 50l-1 1c48,28 82,-35 1,-1zm-20 3c10,-8 20,-21 35,-25 26,-8 21,-13 2,-37 -1,2 -4,5 -6,8 -8,22 -26,32 -45,41 -6,3 -8,9 -11,11 -12,14 -1,13 25,2zm212 -707c-10,-11 -18,-23 -21,-33 -3,-12 -21,-63 -15,-72 3,-6 13,49 16,56 8,18 4,25 25,39 0,0 5,4 9,7 9,6 19,13 3,-10 -6,-11 -24,-25 -26,-35 -4,-18 -25,-74 -14,-64 1,2 19,57 28,68 1,0 9,16 15,25 7,8 15,18 12,12 -6,-14 -19,-24 -21,-40 -3,-17 -11,-30 -18,-53 -1,-3 -4,-16 -3,-18 5,-15 18,41 24,55 5,10 0,14 9,24 1,1 9,15 13,10 1,-2 -1,-8 -6,-17 -4,-13 -16,-31 -18,-42 -5,-25 -14,-26 -12,-60 0,-10 6,25 6,26 1,3 13,34 13,34 4,-6 -3,-45 -6,-52 -2,-5 4,-23 6,3 0,2 7,42 7,47 1,2 4,19 8,29 5,-1 8,-5 1,-15 -2,-8 -7,-15 -7,-21 1,-4 2,-1 7,6l1 1c0,-6 0,-6 -3,-13 -2,-5 -3,-9 -5,-14 -9,-29 -7,-35 -9,-64 -3,-1 -6,-3 -10,-5 -24,-13 -51,-29 -82,-19 -8,32 19,38 18,81 -2,72 33,109 65,161 3,6 6,11 9,17 4,9 9,32 13,36 5,-15 -5,-35 -10,-47 -1,-2 -4,-8 -6,-16 -6,-19 -3,-12 -16,-27zm1132 421c2,2 -9,7 -21,13 -29,14 -21,10 -34,37 -4,7 -7,13 -9,13 -5,0 -1,-24 6,-32 8,-10 11,-15 24,-23 8,-4 30,-14 34,-8zm-7 34c-5,1 -10,2 -10,4 0,7 3,6 8,4 12,-4 15,3 1,6 -2,1 -4,1 -4,2 -1,7 3,2 6,1 9,-1 7,6 -4,7 -10,1 -13,11 -17,11 -7,0 5,-10 5,-12 -19,-14 -46,79 -50,61 -4,-12 27,-74 36,-81 8,-14 33,-23 46,-25 6,-1 -6,6 -8,8 -4,5 -4,6 -2,6 11,4 -1,7 -7,8zm-792 345c-5,-8 -1,-7 6,-3 18,10 6,15 37,14 3,1 10,-4 11,-2 -5,3 -10,5 -16,6l-5 1c-9,0 -20,-5 -33,-16z"/>
  <path class="fil1" d="M619 1674c0,-3 -3,-3 -3,-3l-132 0c0,0 -3,0 -3,3 0,0 0,171 0,273 -9,0 -33,0 -64,0 0,-99 0,-273 0,-273 0,-3 -2,-3 -2,-3l-128 0c0,0 -2,0 -2,3 0,0 0,171 0,273 -24,0 -46,0 -62,0 0,-74 0,-184 0,-187 0,-65 -40,-105 -96,-105 -38,0 -75,27 -83,49 -6,19 41,-5 41,105 0,47 0,204 0,204 0,3 2,3 2,3l0 0c110,22 438,21 530,0l0 0c0,0 2,0 2,-2 0,-16 0,-340 0,-340zm393 -3c-100,-22 -250,-20 -349,0 0,0 -3,0 -3,3 0,16 0,339 0,339 0,3 3,3 3,3l132 0c0,0 4,0 4,-3 0,0 0,-177 0,-279 27,0 56,0 77,0 0,99 0,279 0,279 0,3 3,3 3,3l132 0c0,0 3,0 3,-3 0,0 0,-284 0,-339 0,-4 -2,-3 -2,-3l0 0zm408 207c0,-47 5,-204 5,-204 0,-3 -2,-4 -2,-4l-139 0c0,0 -2,1 -2,5 0,0 0,110 0,189 -3,77 -65,99 -65,31 0,-47 0,-110 0,-133 0,-65 -46,-105 -102,-105 -38,0 -75,27 -83,49 -6,19 46,-5 46,105 0,51 0,78 0,107 0,69 43,113 94,113 37,0 83,-20 112,-79 9,50 46,79 93,79 39,0 76,-26 83,-48 7,-19 -40,4 -40,-105zm415 -1c0,-47 0,-203 0,-203 0,-4 -3,-4 -3,-4l-132 0c0,0 -3,0 -3,4 0,0 0,63 0,126l-68 0c0,-17 0,-31 0,-40 0,-65 -40,-105 -96,-105 -38,0 -75,27 -83,49 -6,19 41,-5 41,105 0,47 -5,204 -5,204 -1,3 3,3 3,3l137 0c0,0 3,0 3,-4 0,0 0,-66 0,-132 20,0 47,0 68,0 0,26 0,46 0,46 0,65 40,103 96,103 39,0 76,-25 83,-46 6,-20 -41,4 -41,-106zm417 1c0,-47 5,-204 5,-204 0,-3 -3,-4 -3,-4l-137 0c0,0 -4,1 -4,5 0,0 0,18 0,47 -21,-38 -55,-65 -102,-65 -90,0 -138,92 -138,186 0,92 48,188 135,188 48,0 85,-33 108,-78 9,49 46,78 94,78 38,0 75,-26 82,-48 7,-19 -40,4 -40,-105l0 0zm-186 58c-34,0 -52,-41 -52,-93 0,-52 18,-93 52,-93 34,0 52,41 52,93 0,52 -18,93 -52,93zm555 -241c0,-11 -2,-20 -2,-20 -1,-3 -2,-6 -7,-7 -24,-3 -195,-24 -331,2 0,0 -1,0 -1,3l0 4 1 77c0,3 2,3 2,3l90 1 0 168c0,64 40,104 95,104 39,0 77,-27 84,-49 6,-18 -40,5 -40,-104l0 -114 0 0c37,6 110,0 109,-68z"/>
  <path class="fil2" d="M409 2314c0,1 0,2 0,3 0,0 0,1 0,2 0,0 0,1 -1,1 0,0 0,1 -1,1 0,1 -1,1 -2,2 -2,1 -3,1 -5,2 -2,1 -4,1 -6,2 -3,0 -5,0 -8,0 -6,0 -11,0 -15,-2 -5,-2 -8,-4 -11,-8 -3,-3 -6,-7 -7,-12 -2,-5 -3,-11 -3,-18 0,-7 1,-13 3,-18 2,-5 4,-10 7,-13 4,-4 8,-6 12,-8 5,-2 10,-3 15,-3 2,0 4,0 7,1 2,0 4,0 5,1 2,1 4,1 5,2 1,1 2,2 3,2 0,1 1,1 1,1 0,1 0,1 1,2 0,0 0,1 0,2 0,1 0,2 0,3 0,1 0,2 0,3 0,1 0,1 -1,2 0,1 0,1 0,1 -1,0 -1,1 -1,1 -1,0 -2,-1 -3,-2 -1,0 -2,-1 -3,-2 -2,-1 -4,-2 -6,-2 -2,-1 -4,-1 -7,-1 -3,0 -6,0 -9,2 -2,1 -4,3 -6,5 -2,3 -3,5 -4,9 -1,3 -1,7 -1,11 0,5 0,9 1,13 1,3 2,6 4,8 2,2 4,4 7,5 2,1 5,2 8,2 3,0 6,-1 8,-1 2,-1 4,-2 5,-3 2,0 3,-1 4,-2 1,0 2,-1 2,-1 0,0 1,0 1,0 0,1 1,1 1,1 0,1 0,2 0,2 0,1 0,3 0,4zm135 6c0,1 0,2 0,3 0,1 0,1 -1,2 0,0 0,1 0,1 -1,0 -1,0 -1,0l-41 0c-1,0 -2,0 -3,-1 -1,-1 -1,-2 -1,-4l0 -70c0,-1 0,-3 1,-4 1,0 2,-1 3,-1l40 0c1,0 1,0 1,1 1,0 1,0 1,1 0,0 0,1 1,2 0,0 0,1 0,3 0,1 0,2 0,3 -1,0 -1,1 -1,2 0,0 0,0 -1,1 0,0 0,0 -1,0l-28 0 0 19 24 0c0,0 1,1 1,1 0,0 0,0 1,1 0,0 0,1 0,2 0,1 0,2 0,3 0,1 0,2 0,3 0,0 0,1 0,2 -1,0 -1,0 -1,1 0,0 -1,0 -1,0l-24 0 0 22 29 0c0,0 0,0 1,1 0,0 0,0 0,1 1,0 1,1 1,2 0,1 0,2 0,3zm143 -67c0,1 0,2 0,3 0,1 -1,1 -1,2 0,1 0,1 -1,1 0,0 0,0 -1,0l-20 0 0 65c0,0 0,1 0,1 0,0 -1,1 -1,1 -1,0 -2,0 -3,0 -1,0 -2,1 -4,1 -1,0 -3,-1 -4,-1 -1,0 -2,0 -2,0 -1,0 -1,-1 -1,-1 -1,0 -1,-1 -1,-1l0 -65 -20 0c0,0 -1,0 -1,0 0,0 0,0 -1,-1 0,-1 0,-1 0,-2 0,-1 0,-2 0,-3 0,-1 0,-2 0,-3 0,-1 0,-2 0,-2 1,-1 1,-1 1,-1 0,-1 1,-1 1,-1l56 0c1,0 1,0 1,1 1,0 1,0 1,1 0,0 1,1 1,2 0,1 0,2 0,3zm144 47c0,3 -1,7 -2,10 -1,3 -3,6 -5,8 -3,3 -6,5 -10,6 -4,1 -10,2 -17,2l-20 0c-1,0 -1,0 -2,0 0,0 -1,-1 -1,-1 -1,0 -1,-1 -1,-2 -1,0 -1,-1 -1,-2l0 -73c0,0 0,0 1,-1 0,0 0,0 1,-1 1,0 1,0 2,0 1,0 3,0 4,0 2,0 3,0 4,0 1,0 2,0 3,0 0,1 1,1 1,1 0,1 0,1 0,1l0 28 12 0c6,0 10,0 14,1 4,1 7,3 9,5 3,2 5,4 6,7 1,3 2,7 2,11zm-17 1c0,-2 0,-4 -1,-5 0,-2 -1,-3 -2,-4 -1,-1 -3,-2 -5,-3 -2,0 -5,-1 -8,-1l-10 0 0 26 10 0c4,0 7,-1 9,-2 2,0 3,-1 4,-3 1,-1 2,-2 3,-4 0,-1 0,-3 0,-4zm311 23c0,0 0,1 0,1 0,0 -1,1 -1,1 -1,0 -2,0 -3,0 -1,0 -2,1 -3,1 -2,0 -3,-1 -4,-1 -1,0 -2,0 -2,0 -1,0 -1,-1 -2,-1 0,0 0,-1 0,-1l0 -65 0 0 -23 65c0,0 -1,1 -1,1 0,1 -1,1 -2,1 0,0 -1,0 -2,0 -1,1 -2,1 -4,1 -1,0 -2,0 -3,-1 -1,0 -2,0 -3,0 0,0 -1,-1 -1,-1 0,0 -1,-1 -1,-1l-22 -65 0 0 0 65c0,0 0,1 -1,1 0,0 0,1 -1,1 -1,0 -1,0 -2,0 -1,0 -3,1 -4,1 -2,0 -3,-1 -4,-1 -1,0 -2,0 -2,0 -1,0 -1,-1 -1,-1 -1,0 -1,-1 -1,-1l0 -71c0,-2 1,-4 2,-5 1,-1 3,-2 4,-2l11 0c2,0 4,0 5,1 1,0 2,0 3,1 1,1 2,2 3,3 1,1 1,3 2,4l17 48 0 0 18 -47c1,-2 1,-4 2,-5 0,-1 1,-2 2,-3 1,0 2,-1 3,-1 1,-1 2,-1 4,-1l11 0c1,0 2,0 3,1 1,0 1,0 2,1 0,0 1,1 1,2 0,1 0,2 0,3l0 71zm159 -4c1,2 1,3 1,4 0,0 0,1 0,2 -1,0 -2,0 -3,0 -1,1 -3,1 -5,1 -2,0 -3,0 -5,-1 -1,0 -2,0 -2,0 -1,0 -1,0 -2,-1 0,0 0,0 0,-1l-5 -16 -31 0 -5 16c0,0 0,1 0,1 0,0 -1,1 -2,1 0,0 -1,0 -2,0 -1,1 -3,1 -4,1 -2,0 -4,-1 -5,-1 -1,0 -2,0 -2,-1 0,0 -1,-1 0,-2 0,0 0,-2 0,-3l25 -71c0,-1 1,-1 1,-2 0,0 1,0 2,-1 0,0 1,0 3,0 1,0 2,0 5,0 2,0 4,0 5,0 2,0 3,0 4,0 1,1 1,1 2,1 0,1 0,1 0,2l25 71zm-37 -59l0 0 -11 34 23 0 -12 -34zm169 -8c0,1 0,2 0,3 0,1 0,2 0,2 0,1 -1,1 -1,1 0,0 -1,0 -1,0l-27 0 0 65c0,0 0,1 0,1 0,0 -1,1 -1,1 -1,0 -2,0 -3,0 -1,1 -2,1 -4,1 -1,0 -3,0 -4,-1 -1,0 -2,0 -2,0 -1,0 -1,-1 -2,-1 0,0 0,-1 0,-1l0 -73c0,-1 1,-3 1,-4 1,0 2,-1 4,-1l38 0c1,0 1,1 2,2 0,1 0,2 0,5zm141 67c1,2 1,3 1,4 0,0 0,1 0,2 -1,0 -2,0 -3,0 -1,1 -3,1 -5,1 -2,0 -3,0 -5,-1 -1,0 -2,0 -2,0 -1,0 -1,0 -1,-1 -1,0 -1,0 -1,-1l-5 -16 -31 0 -5 16c0,0 0,1 0,1 0,0 -1,1 -1,1 -1,0 -2,0 -3,0 -1,1 -3,1 -4,1 -2,0 -4,-1 -5,-1 -1,0 -2,0 -2,-1 0,0 -1,-1 0,-2 0,0 0,-2 1,-3l24 -71c0,-1 1,-1 1,-2 0,0 1,0 2,-1 0,0 1,0 3,0 1,0 3,0 5,0 2,0 4,0 5,0 2,0 3,0 4,0 1,1 1,1 2,1 0,1 0,1 0,2l25 71zm-37 -59l0 0 -11 34 23 0 -12 -34zm172 42c0,4 -1,8 -2,11 -2,3 -4,5 -7,7 -3,2 -6,4 -10,5 -4,1 -8,2 -13,2 -3,0 -5,-1 -7,-1 -2,0 -4,-1 -6,-1 -2,-1 -3,-2 -4,-2 -1,-1 -2,-1 -2,-1 0,-1 -1,-1 -1,-1 0,-1 0,-1 0,-2 -1,-1 -1,-2 -1,-3 0,-1 0,-2 0,-3 0,-2 0,-3 1,-4 0,0 0,-1 1,-1 1,0 1,0 2,1 1,0 2,1 4,2 1,0 3,1 5,1 2,1 4,1 7,1 2,0 4,0 6,-1 1,0 3,-1 4,-2 2,-1 2,-2 3,-3 1,-2 1,-3 1,-5 0,-2 0,-3 -1,-5 0,-1 -1,-3 -3,-4 -1,-1 -3,-1 -5,-2 -2,-1 -4,-1 -7,-1l-9 0c0,0 -1,0 -1,0 -1,0 -1,-1 -1,-1 0,-1 -1,-1 -1,-2 0,-1 0,-2 0,-3 0,-1 0,-2 0,-3 0,-1 1,-1 1,-2 0,0 0,-1 1,-1 0,0 0,0 1,0l9 0c2,0 4,0 6,-1 2,0 4,-1 5,-2 1,-1 2,-2 3,-4 1,-1 1,-3 1,-4 0,-2 0,-3 -1,-4 0,-2 -1,-3 -2,-3 -1,-1 -2,-2 -4,-2 -1,-1 -3,-1 -5,-1 -2,0 -5,0 -7,1 -2,0 -3,1 -5,1 -1,1 -3,2 -4,2 -1,1 -1,1 -2,1 0,0 0,0 -1,0 0,-1 0,-1 0,-1 0,-1 0,-1 0,-2 -1,-1 -1,-2 -1,-3 0,-1 0,-1 1,-2 0,-1 0,-2 0,-2 0,-1 0,-1 0,-2 0,0 1,0 1,-1 1,0 2,-1 3,-1 1,-1 3,-2 5,-2 2,-1 4,-1 6,-2 3,0 5,0 8,0 4,0 8,0 11,1 3,1 6,2 8,4 2,2 4,4 5,6 1,3 2,6 2,9 0,2 -1,5 -1,7 -1,2 -2,4 -3,5 -2,2 -3,3 -5,4 -2,2 -4,2 -6,3l0 0c3,0 5,1 7,2 2,1 4,3 5,4 2,2 3,4 4,6 1,2 1,4 1,7zm154 21c0,0 0,1 0,1 -1,0 -1,1 -2,1 0,0 -1,0 -2,0 -1,1 -3,1 -4,1 -2,0 -3,0 -4,-1 -1,0 -2,0 -3,0 0,0 -1,-1 -1,-1 0,0 0,-1 0,-1l0 -42c0,-2 0,-3 0,-5 0,-1 0,-3 0,-4l0 0c0,1 -1,1 -1,2 -1,1 -1,2 -2,3 0,0 -1,1 -1,2 -1,1 -2,2 -2,3l-28 41c0,1 -1,1 -1,1 0,1 -1,1 -1,1 -1,0 -2,0 -2,0 -1,1 -2,1 -3,1 -2,0 -3,0 -4,-1 -1,0 -2,0 -3,0 0,0 -1,-1 -1,-1 0,0 0,-1 0,-1l0 -76c0,0 0,0 0,-1 1,0 1,0 2,-1 0,0 1,0 2,0 1,0 2,0 4,0 2,0 3,0 4,0 1,0 2,0 2,0 1,1 1,1 2,1 0,1 0,1 0,1l0 43c0,1 0,2 0,4 0,1 0,3 0,4l0 0c1,-1 2,-3 3,-4 1,-2 2,-4 3,-5l28 -42c0,0 0,-1 1,-1 0,0 0,0 1,-1 1,0 1,0 2,0 1,0 2,0 3,0 2,0 3,0 4,0 1,0 2,0 2,0 1,1 1,1 2,1 0,1 0,1 0,1l0 76zm156 0c0,0 -1,1 -1,1 0,0 -1,1 -1,1 -1,0 -2,0 -3,0 -1,0 -2,1 -4,1 -1,0 -2,-1 -4,-1 -1,0 -1,0 -2,0 -1,0 -1,-1 -1,-1 -1,0 -1,-1 -1,-1l0 -32 -30 0 0 32c0,0 0,1 0,1 0,0 -1,1 -1,1 -1,0 -2,0 -3,0 -1,0 -2,1 -4,1 -1,0 -3,-1 -4,-1 -1,0 -2,0 -2,0 -1,0 -1,-1 -1,-1 -1,0 -1,-1 -1,-1l0 -76c0,0 0,0 1,-1 0,0 0,0 1,0 0,-1 1,-1 2,-1 1,0 3,0 4,0 2,0 3,0 4,0 1,0 2,0 3,1 0,0 1,0 1,0 0,1 0,1 0,1l0 30 30 0 0 -30c0,0 0,0 1,-1 0,0 0,0 1,0 1,-1 1,-1 2,-1 2,0 3,0 4,0 2,0 3,0 4,0 1,0 2,0 3,1 0,0 1,0 1,0 0,1 1,1 1,1l0 76zm165 -39c0,7 -1,13 -3,18 -2,5 -4,10 -7,13 -3,4 -8,7 -12,9 -5,2 -11,3 -17,3 -6,0 -12,-1 -16,-3 -5,-2 -9,-4 -12,-7 -3,-4 -5,-8 -7,-13 -1,-5 -2,-11 -2,-18 0,-7 1,-13 2,-18 2,-5 5,-9 8,-13 3,-4 7,-6 12,-8 5,-2 10,-3 17,-3 6,0 11,1 16,2 4,2 8,4 11,8 3,3 6,7 7,12 2,5 3,11 3,18zm-17 1c0,-4 -1,-8 -1,-11 -1,-4 -2,-7 -4,-9 -1,-3 -4,-5 -6,-6 -3,-1 -6,-2 -10,-2 -4,0 -7,1 -10,2 -3,2 -5,4 -6,6 -2,3 -3,6 -4,9 -1,4 -1,7 -1,11 0,4 0,8 1,12 1,3 2,6 3,9 2,2 4,4 7,5 2,1 6,2 10,2 4,0 7,-1 10,-2 2,-2 4,-4 6,-6 2,-3 3,-6 4,-9 0,-3 1,-7 1,-11zm164 16c0,3 0,6 -1,8 -1,2 -2,4 -3,6 -2,2 -4,3 -5,5 -2,1 -4,2 -7,3 -2,1 -5,1 -7,2 -3,0 -6,0 -9,0l-21 0c-1,0 -3,0 -4,-1 0,-1 -1,-2 -1,-4l0 -70c0,-1 1,-3 1,-4 1,0 3,-1 4,-1l20 0c5,0 9,1 12,1 4,1 7,3 9,4 2,2 4,4 5,7 1,2 2,5 2,9 0,1 0,3 -1,5 0,2 -1,3 -2,5 -1,1 -2,2 -3,3 -2,1 -3,2 -5,3 2,0 4,1 6,2 2,1 4,2 5,4 2,2 3,4 4,6 0,2 1,4 1,7zm-21 -34c0,-1 0,-3 -1,-4 0,-1 -1,-2 -2,-3 -1,-1 -2,-2 -4,-2 -1,0 -3,-1 -6,-1l-8 0 0 21 9 0c2,0 4,0 6,-1 1,0 2,-1 3,-2 1,-1 2,-2 2,-3 1,-2 1,-3 1,-5zm4 35c0,-2 0,-4 -1,-5 0,-2 -1,-3 -3,-4 -1,-1 -2,-2 -4,-2 -2,-1 -4,-1 -7,-1l-10 0 0 23 12 0c2,0 4,0 5,-1 2,0 3,-1 4,-2 2,-1 2,-2 3,-4 1,-1 1,-2 1,-4z"/>
  <g id="_2482455084528">
   <path class="fil2" d="M427 2485c0,6 -1,12 -3,16 -3,5 -6,9 -10,12 -5,3 -10,6 -16,7 -6,2 -12,3 -20,3 -4,0 -7,-1 -11,-1 -3,-1 -6,-2 -9,-2 -2,-1 -4,-2 -5,-3 -2,-1 -3,-1 -4,-2 0,0 -1,-1 -1,-2 0,0 -1,-1 -1,-2 0,-1 0,-2 0,-4 0,-1 0,-3 0,-6 0,-2 0,-4 0,-5 1,-1 1,-1 2,-1 1,0 2,0 4,1 1,1 3,1 5,2 2,1 5,2 8,3 3,1 6,1 10,1 4,0 7,0 9,-1 3,-1 6,-2 7,-3 2,-2 4,-4 5,-6 1,-2 1,-4 1,-7 0,-3 0,-5 -1,-7 -1,-3 -2,-5 -5,-6 -2,-2 -4,-3 -7,-4 -4,-1 -7,-1 -12,-1l-13 0c-1,0 -1,0 -2,0 -1,-1 -1,-1 -1,-2 -1,0 -1,-1 -1,-3 0,-1 0,-2 0,-5 0,-1 0,-3 0,-4 0,-1 0,-2 1,-3 0,0 1,-1 1,-1 1,-1 1,-1 2,-1l13 0c4,0 7,0 10,-1 3,-1 6,-2 8,-3 2,-2 3,-3 4,-5 1,-3 2,-5 2,-8 0,-2 -1,-4 -1,-6 -1,-2 -2,-3 -4,-5 -1,-1 -3,-2 -5,-3 -3,0 -6,-1 -9,-1 -3,0 -7,1 -10,2 -3,0 -6,1 -8,2 -2,1 -4,2 -5,3 -2,1 -3,1 -4,1 0,0 -1,0 -1,0 0,-1 -1,-1 -1,-2 0,0 0,-1 0,-2 0,-2 0,-3 0,-5 0,-1 0,-2 0,-3 0,-1 0,-2 0,-3 0,-1 0,-2 1,-3 0,0 1,-1 1,-1 1,-1 2,-2 4,-3 2,-1 5,-2 8,-3 3,0 6,-1 10,-2 3,0 7,-1 11,-1 7,0 13,1 18,2 4,2 9,4 12,6 3,3 5,6 7,10 2,4 3,8 3,13 0,4 -1,8 -2,11 -1,3 -3,6 -5,8 -2,3 -4,5 -7,6 -2,2 -5,3 -9,4l0 0c4,1 8,2 11,3 3,2 6,4 8,7 2,2 4,5 5,9 1,3 2,6 2,10zm140 64c0,1 0,1 0,2 -1,0 -1,1 -2,1 -1,0 -2,0 -3,0 -2,1 -4,1 -6,1 -2,0 -4,0 -5,-1 -1,0 -2,0 -3,0 -1,0 -2,-1 -2,-1 0,-1 -1,-1 -1,-2l0 -29 -81 0 0 29c0,1 0,1 0,2 -1,0 -1,1 -2,1 -1,0 -2,0 -3,0 -2,1 -4,1 -6,1 -2,0 -4,0 -5,-1 -1,0 -3,0 -3,0 -1,0 -2,-1 -2,-1 0,-1 -1,-1 -1,-2l0 -44c0,-1 1,-3 1,-4 1,0 2,-1 4,-1l6 0c1,-2 3,-4 4,-6 1,-3 3,-5 4,-8 1,-4 2,-7 4,-12 1,-4 2,-9 3,-15 1,-6 3,-14 4,-22 1,-9 2,-19 4,-30 0,-3 1,-5 2,-7 1,-1 2,-1 5,-1l62 0c2,0 4,0 5,1 1,2 2,4 2,6l0 94 10 0c2,0 3,1 4,2 1,1 1,2 1,3l0 44zm-40 -130l-28 0c-1,9 -2,18 -3,25 -2,7 -3,13 -4,19 -1,5 -2,10 -3,14 -1,4 -2,7 -4,10 -1,3 -2,6 -3,8 -2,2 -3,4 -4,5l49 0 0 -81zm170 39c0,10 -1,19 -3,27 -3,8 -7,15 -11,20 -5,6 -12,10 -19,13 -7,3 -16,5 -25,5 -10,0 -18,-2 -25,-4 -7,-3 -13,-6 -18,-11 -4,-6 -8,-12 -10,-20 -3,-8 -4,-17 -4,-28 0,-10 1,-18 4,-26 2,-8 6,-15 11,-20 5,-6 11,-10 18,-13 8,-3 16,-5 26,-5 9,0 17,2 24,4 7,3 13,6 18,11 5,6 8,12 11,20 2,7 3,17 3,27zm-26 1c0,-6 0,-12 -1,-17 -1,-5 -3,-10 -5,-14 -3,-3 -6,-6 -10,-8 -4,-2 -9,-3 -15,-3 -6,0 -11,1 -15,3 -4,2 -7,6 -10,9 -2,4 -4,9 -5,14 -1,5 -2,10 -2,16 0,7 1,13 2,18 1,5 2,10 5,14 2,3 5,6 9,8 4,2 9,3 15,3 7,0 12,-1 16,-3 4,-3 7,-6 10,-9 2,-4 4,-9 5,-14 1,-5 1,-11 1,-17zm138 -23c0,6 -1,13 -3,18 -2,5 -5,10 -9,13 -4,4 -9,7 -15,8 -6,2 -13,3 -21,3l-10 0 0 39c0,1 -1,1 -1,2 0,0 -1,1 -2,1 -1,0 -2,1 -4,1 -1,0 -3,0 -6,0 -2,0 -4,0 -6,0 -1,0 -3,-1 -4,-1 -1,0 -1,-1 -2,-1 0,-1 0,-1 0,-2l0 -110c0,-3 1,-5 2,-6 2,-2 4,-2 6,-2l29 0c3,0 6,0 8,0 3,0 6,1 10,1 3,1 7,2 11,4 3,2 7,5 9,8 3,3 5,6 6,10 2,4 2,9 2,14zm-25 1c0,-4 -1,-7 -3,-10 -1,-3 -3,-5 -5,-6 -3,-2 -5,-2 -7,-3 -3,0 -5,0 -8,0l-10 0 0 41 11 0c4,0 7,0 10,-1 2,-2 5,-3 6,-5 2,-2 3,-4 4,-7 1,-3 2,-5 2,-9zm162 21c0,10 -2,19 -4,27 -3,8 -6,15 -11,20 -5,6 -11,10 -19,13 -7,3 -16,5 -25,5 -10,0 -18,-2 -25,-4 -7,-3 -13,-6 -18,-11 -4,-6 -8,-12 -10,-20 -3,-8 -4,-17 -4,-28 0,-10 1,-18 4,-26 3,-8 6,-15 11,-20 5,-6 11,-10 19,-13 7,-3 15,-5 25,-5 9,0 17,2 25,4 7,3 12,6 17,11 5,6 9,12 11,20 2,7 4,17 4,27zm-26 1c0,-6 -1,-12 -2,-17 -1,-5 -3,-10 -5,-14 -2,-3 -6,-6 -10,-8 -4,-2 -9,-3 -15,-3 -6,0 -11,1 -15,3 -4,2 -7,6 -10,9 -2,4 -4,9 -5,14 -1,5 -2,10 -2,16 0,7 1,13 2,18 1,5 2,10 5,14 2,3 5,6 9,8 4,2 10,3 16,3 6,0 11,-1 15,-3 4,-3 7,-6 10,-9 2,-4 4,-9 5,-14 1,-5 2,-11 2,-17zm142 25c0,4 0,8 -2,12 -1,3 -2,6 -5,9 -2,3 -4,5 -7,7 -3,2 -6,4 -10,5 -3,1 -7,2 -11,3 -4,0 -8,0 -13,0l-33 0c-2,0 -3,0 -5,-1 -1,-2 -2,-4 -2,-6l0 -107c0,-2 1,-4 2,-6 2,-1 3,-1 5,-1l31 0c7,0 14,0 19,1 5,2 9,4 13,6 3,3 6,6 8,10 2,4 3,8 3,14 0,2 -1,5 -1,8 -1,2 -2,5 -4,7 -1,2 -3,4 -5,6 -2,1 -4,3 -7,4 3,0 7,1 9,3 3,1 6,3 8,6 2,2 4,5 5,9 1,3 2,7 2,11zm-32 -51c0,-3 0,-5 -1,-7 -1,-2 -2,-4 -3,-5 -2,-1 -4,-2 -6,-3 -2,-1 -5,-1 -9,-1l-13 0 0 32 14 0c4,0 7,-1 9,-2 2,0 4,-2 5,-3 1,-2 2,-3 3,-5 1,-2 1,-4 1,-6zm6 52c0,-3 0,-6 -1,-8 -1,-2 -2,-4 -4,-5 -2,-2 -4,-3 -7,-4 -3,-1 -7,-1 -11,-1l-15 0 0 35 18 0c4,0 6,-1 9,-2 2,0 4,-1 6,-3 2,-1 3,-3 4,-5 1,-2 1,-5 1,-7zm163 -27c0,10 -1,19 -4,27 -2,8 -6,15 -11,20 -5,6 -11,10 -18,13 -8,3 -16,5 -26,5 -9,0 -17,-2 -24,-4 -7,-3 -13,-6 -18,-11 -5,-6 -8,-12 -11,-20 -2,-8 -3,-17 -3,-28 0,-10 1,-18 4,-26 2,-8 6,-15 11,-20 5,-6 11,-10 18,-13 8,-3 16,-5 26,-5 9,0 17,2 24,4 7,3 13,6 18,11 5,6 8,12 11,20 2,7 3,17 3,27zm-26 1c0,-6 0,-12 -1,-17 -1,-5 -3,-10 -5,-14 -3,-3 -6,-6 -10,-8 -4,-2 -9,-3 -15,-3 -6,0 -11,1 -15,3 -4,2 -8,6 -10,9 -3,4 -5,9 -6,14 -1,5 -1,10 -1,16 0,7 0,13 1,18 1,5 3,10 5,14 3,3 6,6 10,8 4,2 9,3 15,3 6,0 11,-1 15,-3 4,-3 8,-6 10,-9 3,-4 5,-9 6,-14 1,-5 1,-11 1,-17zm124 -50c0,2 0,3 -1,5 0,1 0,2 0,3 -1,0 -1,1 -2,1 0,1 -1,1 -1,1l-41 0 0 98c0,1 0,1 0,2 -1,0 -1,1 -2,1 -1,0 -2,1 -4,1 -2,0 -4,0 -6,0 -2,0 -4,0 -6,0 -2,0 -3,-1 -4,-1 -1,0 -1,-1 -2,-1 0,-1 0,-1 0,-2l0 -111c0,-2 0,-4 2,-6 1,-1 3,-1 5,-1l58 0c1,0 2,0 3,2 0,1 1,4 1,8zm126 49c0,10 -2,19 -4,27 -3,8 -6,15 -11,20 -5,6 -12,10 -19,13 -7,3 -16,5 -25,5 -10,0 -18,-2 -25,-4 -7,-3 -13,-6 -18,-11 -4,-6 -8,-12 -10,-20 -3,-8 -4,-17 -4,-28 0,-10 1,-18 4,-26 2,-8 6,-15 11,-20 5,-6 11,-10 19,-13 7,-3 15,-5 25,-5 9,0 17,2 24,4 8,3 13,6 18,11 5,6 8,12 11,20 2,7 4,17 4,27zm-27 1c0,-6 0,-12 -1,-17 -1,-5 -3,-10 -5,-14 -3,-3 -6,-6 -10,-8 -4,-2 -9,-3 -15,-3 -6,0 -11,1 -15,3 -4,2 -7,6 -10,9 -2,4 -4,9 -5,14 -1,5 -2,10 -2,16 0,7 1,13 2,18 1,5 2,10 5,14 2,3 5,6 9,8 4,2 9,3 16,3 6,0 11,-1 15,-3 4,-3 7,-6 10,-9 2,-4 4,-9 5,-14 1,-5 1,-11 1,-17zm193 58c0,1 0,1 0,2 -1,0 -1,1 -2,1 -1,0 -2,1 -4,1 -2,0 -4,0 -6,0 -2,0 -4,0 -6,0 -1,0 -3,-1 -4,-1 -1,0 -1,-1 -2,-1 0,-1 0,-1 0,-2l0 -98 -46 0 0 98c0,1 0,1 0,2 -1,0 -2,1 -2,1 -1,0 -3,1 -4,1 -2,0 -4,0 -6,0 -3,0 -5,0 -6,0 -2,0 -3,-1 -4,-1 -1,0 -2,-1 -2,-1 0,-1 0,-1 0,-2l0 -111c0,-2 0,-4 2,-6 1,-1 3,-1 5,-1l80 0c3,0 4,0 6,1 1,2 1,4 1,6l0 111zm134 0c0,1 -1,1 -1,2 0,0 -1,1 -2,1 -1,0 -2,1 -4,1 -1,0 -3,0 -6,0 -2,0 -4,0 -6,0 -1,0 -3,-1 -4,-1 0,0 -1,-1 -1,-1 -1,-1 -1,-1 -1,-2l0 -64c0,-2 0,-5 0,-7 0,-3 0,-5 0,-6l0 0c0,0 -1,1 -2,3 0,1 -1,2 -2,3 -1,2 -2,3 -2,4 -1,2 -2,3 -3,4l-42 63c-1,1 -1,2 -2,2 0,1 -1,1 -2,1 -1,1 -2,1 -3,1 -1,0 -3,0 -5,0 -2,0 -4,0 -6,0 -1,0 -2,-1 -3,-1 -1,0 -2,-1 -2,-1 0,-1 -1,-1 -1,-2l0 -115c0,-1 1,-1 1,-2 1,0 1,-1 2,-1 1,0 2,-1 4,-1 2,0 4,0 6,0 2,0 4,0 6,0 1,0 3,1 4,1 1,0 1,1 2,1 0,1 0,1 0,2l0 64c0,2 0,5 0,7 0,2 0,4 0,6l0 0c1,-1 2,-4 4,-6 2,-3 3,-6 5,-8l43 -63c0,-1 0,-2 1,-2 0,0 1,-1 2,-1 1,0 2,-1 3,-1 1,0 3,0 5,0 2,0 4,0 6,0 1,0 2,1 3,1 1,0 2,1 2,1 0,1 1,1 1,2l0 115zm115 -108c0,2 0,3 0,4 -1,2 -1,3 -1,4 -1,0 -1,1 -1,1 -1,1 -1,1 -2,1l-30 0 0 98c0,1 -1,1 -1,2 0,0 -1,1 -2,1 -1,0 -2,1 -4,1 -1,0 -3,0 -6,0 -2,0 -4,0 -6,0 -1,0 -3,-1 -4,-1 -1,0 -1,-1 -2,-1 0,-1 0,-1 0,-2l0 -98 -31 0c0,0 -1,0 -1,-1 -1,0 -1,-1 -1,-1 -1,-1 -1,-2 -1,-4 0,-1 0,-2 0,-4 0,-2 0,-4 0,-5 0,-1 0,-2 1,-3 0,-1 0,-2 1,-2 0,0 1,0 1,0l86 0c1,0 1,0 2,0 0,0 0,1 1,2 0,1 0,2 1,3 0,1 0,3 0,5zm108 102c1,3 2,4 2,6 0,1 0,2 -1,3 -1,0 -2,1 -4,1 -1,0 -4,0 -7,0 -3,0 -5,0 -7,0 -2,0 -3,0 -4,-1 -1,0 -2,0 -2,-1 -1,0 -1,-1 -1,-2l-8 -24 -46 0 -8 24c0,0 -1,1 -1,2 0,0 -1,1 -2,1 -1,1 -2,1 -4,1 -1,0 -4,0 -6,0 -3,0 -5,0 -7,0 -2,0 -3,-1 -3,-2 -1,0 -1,-1 -1,-3 0,-1 1,-3 1,-5l38 -108c0,-1 1,-2 1,-3 1,0 1,-1 3,-1 1,-1 2,-1 4,-1 2,0 5,0 8,0 4,0 6,0 9,0 2,0 4,0 5,1 1,0 2,1 2,1 1,1 1,2 2,3l37 108zm-55 -89l-1 0 -17 52 35 0 -17 -52zm175 95c0,1 0,1 0,2 -1,0 -2,1 -2,1 -1,0 -3,1 -4,1 -2,0 -4,0 -6,0 -3,0 -5,0 -6,0 -2,0 -3,-1 -4,-1 -1,0 -2,-1 -2,-1 0,-1 -1,-1 -1,-2l0 -49 -45 0 0 49c0,1 0,1 -1,2 0,0 -1,1 -2,1 -1,0 -2,1 -4,1 -1,0 -3,0 -6,0 -2,0 -4,0 -6,0 -1,0 -2,-1 -3,-1 -1,0 -2,-1 -2,-1 -1,-1 -1,-1 -1,-2l0 -115c0,-1 0,-1 1,-2 0,0 1,-1 2,-1 1,0 2,-1 3,-1 2,0 4,0 6,0 3,0 5,0 6,0 2,0 3,1 4,1 1,0 2,1 2,1 1,1 1,1 1,2l0 45 45 0 0 -45c0,-1 1,-1 1,-2 0,0 1,-1 2,-1 1,0 2,-1 4,-1 1,0 3,0 6,0 2,0 4,0 6,0 1,0 3,1 4,1 0,0 1,1 2,1 0,1 0,1 0,2l0 115z"/>
   <path class="fil2" d="M2199 2517c0,1 0,1 0,2 -1,0 -1,1 -2,1 -1,0 -2,1 -4,1 -2,0 -4,0 -6,0 -2,0 -4,0 -6,0 -2,0 -3,-1 -4,-1 -1,0 -1,-1 -2,-1 0,-1 0,-1 0,-2l0 -64c0,-2 0,-5 0,-7 0,-3 0,-5 0,-6l0 0c-1,0 -1,1 -2,3 -1,1 -1,2 -2,3 -1,2 -2,3 -3,4 -1,2 -1,3 -2,4l-43 63c0,1 -1,2 -1,2 -1,1 -1,1 -2,1 -1,1 -2,1 -3,1 -2,0 -3,0 -5,0 -3,0 -5,0 -6,0 -2,0 -3,-1 -4,-1 0,0 -1,-1 -1,-1 -1,-1 -1,-1 -1,-2l0 -115c0,-1 0,-1 1,-2 0,0 1,-1 2,-1 1,0 2,-1 4,-1 1,0 3,0 6,0 2,0 4,0 6,0 1,0 2,1 3,1 1,0 2,1 2,1 1,1 1,1 1,2l0 64c0,2 0,5 0,7 0,2 0,4 0,6l0 0c1,-1 2,-4 4,-6 1,-3 3,-6 5,-8l42 -63c1,-1 1,-2 2,-2 0,0 1,-1 2,-1 1,0 2,-1 3,-1 1,0 3,0 5,0 2,0 4,0 5,0 2,0 3,1 4,1 1,0 2,1 2,1 0,1 0,1 0,2l0 115zm119 0c0,1 -1,1 -1,2 0,0 -1,1 -2,1 -1,0 -2,1 -4,1 -1,0 -3,0 -6,0 -2,0 -4,0 -6,0 -1,0 -3,-1 -4,-1 -1,0 -1,-1 -2,-1 0,-1 0,-1 0,-2l0 -45 -9 0c-4,0 -7,0 -9,1 -2,1 -4,2 -5,3 -2,2 -3,4 -4,6 -2,3 -3,5 -4,9l-9 26c0,1 -1,1 -1,2 -1,0 -2,1 -3,1 -1,1 -2,1 -4,1 -1,0 -4,0 -6,0 -3,0 -5,0 -7,0 -2,0 -3,-1 -4,-1 -1,0 -1,-1 -1,-1 -1,-1 -1,-1 -1,-2 0,0 0,-1 0,-2 1,-1 1,-2 2,-4l9 -24c1,-3 2,-6 4,-8 1,-3 2,-5 4,-6 1,-2 3,-4 5,-5 1,-1 3,-2 5,-3 -4,-1 -7,-3 -10,-4 -3,-2 -5,-4 -7,-7 -3,-2 -4,-5 -5,-8 -1,-3 -2,-7 -2,-11 0,-6 1,-11 3,-15 2,-5 5,-8 9,-12 4,-3 8,-5 14,-7 5,-2 13,-2 23,-2l30 0c2,0 4,0 5,1 2,2 3,4 3,6l0 111zm-25 -99l-13 0c-5,0 -9,0 -12,1 -3,1 -5,2 -6,3 -2,2 -3,4 -4,6 -1,2 -1,5 -1,7 0,3 0,5 1,7 1,2 2,4 4,6 2,2 4,3 6,4 3,1 7,1 12,1l13 0 0 -35z"/>
  </g>
  <path class="fil1" d="M207 2221l28 0c4,0 7,2 7,4l0 347c0,3 -3,5 -7,5l-28 0c-4,0 -7,-2 -7,-5l0 -347c0,-2 3,-4 7,-4z"/>
  <path class="fil1" d="M2429 2221l28 0c4,0 7,2 7,4l0 347c0,3 -3,5 -7,5l-28 0c-3,0 -6,-2 -6,-5l0 -347c0,-2 3,-4 6,-4z"/>
 </g>
</svg>
